<svg width="141" height="141" viewBox="0 0 141 141" fill="none" xmlns="http://www.w3.org/2000/svg">
<g clip-path="url(#clip0_91_6)">
<path d="M70.5 141C109.436 141 141 109.436 141 70.5C141 31.5639 109.436 0 70.5 0C31.5639 0 0 31.5639 0 70.5C0 109.436 31.5639 141 70.5 141Z" fill="#FCF5AD"/>
<path d="M58.0991 56.5199C57.6191 56.5732 56.9924 56.5866 56.2191 56.5599C55.4457 56.5066 54.6457 56.4266 53.8191 56.3199C53.0191 56.1866 52.2457 56.0132 51.4991 55.7999C50.7791 55.5866 50.2457 55.3332 49.8991 55.0399C49.7924 54.9599 49.7124 54.8266 49.6591 54.6399C49.6324 54.4532 49.6191 54.2532 49.6191 54.0399C49.6191 53.8266 49.6191 53.6266 49.6191 53.4399C49.6457 53.2266 49.6591 53.0532 49.6591 52.9199C49.7124 50.4132 49.8057 47.9466 49.9391 45.5199C50.0991 43.0666 50.2724 40.5999 50.4591 38.1199C50.5924 36.4666 50.7257 34.8266 50.8591 33.1999C50.9924 31.5732 51.0857 29.9332 51.1391 28.2799C51.1391 28.0666 51.1524 27.8532 51.1791 27.6399C51.2057 27.4266 51.2991 27.2532 51.4591 27.1199C51.5657 27.0399 51.7257 26.9732 51.9391 26.9199C52.1791 26.8666 52.4324 26.8266 52.6991 26.7999C52.9657 26.7732 53.2191 26.7599 53.4591 26.7599C53.6991 26.7332 53.8857 26.7199 54.0191 26.7199C55.1657 26.6399 56.3124 26.6132 57.4591 26.6399C58.6324 26.6399 59.7924 26.7199 60.9391 26.8799C61.0991 26.9066 61.3124 26.9466 61.5791 26.9999C61.8457 27.0532 62.1124 27.1199 62.3791 27.1999C62.6724 27.2532 62.9257 27.3332 63.1391 27.4399C63.3791 27.5466 63.5391 27.6799 63.6191 27.8399C63.7524 28.1332 63.7791 28.4799 63.6991 28.8799C63.2991 30.7999 62.9657 32.7332 62.6991 34.6799C62.4324 36.5999 62.1924 38.5466 61.9791 40.5199C61.8191 42.0399 61.6724 43.5466 61.5391 45.0399C61.4324 46.5332 61.3124 48.0399 61.1791 49.5599C61.1791 49.7466 61.1524 50.1066 61.0991 50.6399C61.0724 51.1732 61.0324 51.7466 60.9791 52.3599C60.9257 52.9466 60.8591 53.5066 60.7791 54.0399C60.7257 54.5732 60.6857 54.9332 60.6591 55.1199V55.1999C60.6591 55.2266 60.6724 55.2399 60.6991 55.2399C60.7524 55.5332 60.6991 55.7599 60.5391 55.9199C60.4057 56.0799 60.2057 56.1999 59.9391 56.2799C59.6724 56.3599 59.3657 56.4132 59.0191 56.4399C58.6991 56.4666 58.3924 56.4932 58.0991 56.5199ZM82.5816 59.7599C81.3549 59.8666 80.1282 59.9066 78.9016 59.8799C77.6749 59.8532 76.4482 59.8132 75.2216 59.7599C75.0349 59.7599 74.8482 59.7199 74.6616 59.6399C74.4749 59.5599 74.3282 59.4532 74.2216 59.3199C74.0882 59.1332 73.9949 58.9332 73.9416 58.7199C73.9149 58.5066 73.8882 58.2932 73.8616 58.0799C73.6482 54.9332 73.6082 51.7999 73.7416 48.6799C73.9016 45.5332 74.1149 42.3866 74.3816 39.2399C73.5816 39.2399 72.7816 39.2666 71.9816 39.3199C71.2082 39.3466 70.4216 39.3866 69.6216 39.4399C69.3816 39.4399 69.1282 39.4399 68.8616 39.4399C68.5949 39.4399 68.3416 39.4132 68.1016 39.3599C67.8882 39.3066 67.7016 39.2266 67.5416 39.1199C67.4082 39.0132 67.3282 38.8399 67.3016 38.5999C67.0082 35.5599 67.0082 32.5332 67.3016 29.5199C67.3282 29.3066 67.3682 29.1066 67.4216 28.9199C67.4749 28.7332 67.5682 28.5732 67.7016 28.4399C67.9149 28.2266 68.1549 28.0932 68.4216 28.0399C68.7149 27.9866 69.0082 27.9599 69.3016 27.9599C69.6482 27.9599 70.2349 27.9332 71.0616 27.8799C71.8882 27.8266 72.8482 27.7732 73.9416 27.7199C75.0349 27.6399 76.1816 27.5599 77.3816 27.4799C78.5816 27.3732 79.7282 27.2799 80.8216 27.1999C81.9149 27.1199 82.8749 27.0532 83.7016 26.9999C84.5282 26.9466 85.1149 26.9066 85.4616 26.8799C85.7016 26.8799 86.0882 26.8666 86.6216 26.8399C87.1816 26.8132 87.7549 26.7999 88.3416 26.7999C88.9549 26.7999 89.5282 26.8132 90.0616 26.8399C90.6216 26.8666 91.0082 26.9066 91.2216 26.9599C91.4349 27.0132 91.6082 27.1199 91.7416 27.2799C91.9016 27.4399 91.9816 27.6132 91.9816 27.7999C91.9816 28.0399 91.9816 28.4266 91.9816 28.9599C92.0082 29.4932 92.0216 30.1199 92.0216 30.8399C92.0216 31.5599 92.0216 32.3066 92.0216 33.0799C92.0216 33.8532 92.0216 34.5999 92.0216 35.3199C92.0216 36.0399 92.0216 36.6799 92.0216 37.2399C92.0216 37.7732 92.0216 38.1466 92.0216 38.3599C92.0216 38.5732 91.9682 38.7999 91.8616 39.0399C91.7549 39.2532 91.5949 39.3866 91.3816 39.4399C91.1416 39.5199 90.6882 39.5732 90.0216 39.5999C89.3816 39.5999 88.6882 39.6132 87.9416 39.6399C87.1949 39.6399 86.4882 39.6399 85.8216 39.6399C85.1549 39.6399 84.7016 39.6532 84.4616 39.6799C84.3282 41.9466 84.2616 44.1866 84.2616 46.3999C84.2882 48.6132 84.3549 50.8532 84.4616 53.1199C84.4616 53.2799 84.4882 53.6266 84.5416 54.1599C84.5949 54.6666 84.6482 55.2132 84.7016 55.7999C84.7816 56.3866 84.8349 56.9332 84.8616 57.4399C84.9149 57.9466 84.9416 58.2799 84.9416 58.4399C84.9416 58.7066 84.8616 58.9199 84.7016 59.0799C84.5682 59.2399 84.3816 59.3599 84.1416 59.4399C83.9282 59.5466 83.6749 59.6132 83.3816 59.6399C83.1149 59.6932 82.8482 59.7332 82.5816 59.7599Z" fill="white"/>
<path d="M33.185 109.64C31.665 109.747 30.145 109.76 28.625 109.68C27.105 109.627 25.585 109.507 24.065 109.32C23.6917 109.267 23.305 109.24 22.905 109.24C22.5317 109.24 22.1583 109.173 21.785 109.04C21.625 108.987 21.465 108.907 21.305 108.8C21.145 108.667 21.0383 108.52 20.985 108.36C20.8783 108.12 20.7317 107.733 20.545 107.2C20.385 106.64 20.185 106 19.945 105.28C19.7317 104.56 19.505 103.8 19.265 103C19.0517 102.2 18.8383 101.44 18.625 100.72C18.4117 99.9999 18.225 99.3599 18.065 98.7999C17.905 98.2399 17.785 97.8399 17.705 97.5999C17.1183 95.6799 16.5183 93.7866 15.905 91.9199C15.2917 90.0266 14.6383 88.1332 13.945 86.2399C13.8917 86.1332 13.785 85.8932 13.625 85.5199C13.465 85.1466 13.2917 84.7599 13.105 84.3599C12.945 83.9599 12.785 83.5866 12.625 83.2399C12.465 82.8666 12.3583 82.6132 12.305 82.4799C12.2783 82.3999 12.225 82.2799 12.145 82.1199C12.065 81.9332 11.985 81.7466 11.905 81.5599C11.825 81.3466 11.7583 81.1466 11.705 80.9599C11.6517 80.7732 11.625 80.6399 11.625 80.5599C11.625 80.3466 11.6917 80.1466 11.825 79.9599C11.985 79.7732 12.145 79.6132 12.305 79.4799C12.8117 79.0266 13.385 78.6799 14.025 78.4399C14.665 78.1999 15.305 77.9732 15.945 77.7599C16.1583 77.6799 16.545 77.5732 17.105 77.4399C17.665 77.2799 18.265 77.1199 18.905 76.9599C19.545 76.7999 20.145 76.6666 20.705 76.5599C21.2917 76.4266 21.705 76.3599 21.945 76.3599C22.505 76.3066 22.8917 76.5866 23.105 77.1999C23.7183 78.7999 24.2783 80.3999 24.785 81.9999C25.3183 83.5999 25.8517 85.2132 26.385 86.8399C26.9183 88.5999 27.4517 90.3466 27.985 92.0799C28.545 93.7866 29.0783 95.5199 29.585 97.2799C29.6383 97.0932 29.7183 96.7866 29.825 96.3599C29.9317 95.9066 30.0517 95.3866 30.185 94.7999C30.345 94.2132 30.4917 93.5999 30.625 92.9599C30.785 92.3199 30.9317 91.7066 31.065 91.1199C31.1983 90.5332 31.305 90.0266 31.385 89.5999C31.4917 89.1466 31.5717 88.8266 31.625 88.6399C31.8383 87.7066 32.0517 86.7732 32.265 85.8399C32.505 84.9066 32.7583 83.9732 33.025 83.0399C33.0517 82.9599 33.0783 82.8532 33.105 82.7199C33.1583 82.5599 33.2117 82.3999 33.265 82.2399C33.3183 82.0799 33.3717 81.9332 33.425 81.7999C33.505 81.6666 33.5717 81.5732 33.625 81.5199C33.7583 81.3599 33.945 81.2532 34.185 81.1999C34.425 81.1199 34.6517 81.0666 34.865 81.0399C36.3317 80.9866 37.785 81.1466 39.225 81.5199C40.665 81.8666 42.105 82.2399 43.545 82.6399C43.865 82.7199 44.145 82.8799 44.385 83.1199C44.625 83.3332 44.6783 83.5866 44.545 83.8799C44.545 83.9066 44.5317 83.9199 44.505 83.9199C44.505 83.9199 44.505 83.9332 44.505 83.9599C44.345 84.7866 44.105 85.5866 43.785 86.3599C43.465 87.1332 43.1583 87.9066 42.865 88.6799C42.785 88.8932 42.6383 89.2932 42.425 89.8799C42.2383 90.4666 42.0117 91.1332 41.745 91.8799C41.4783 92.6266 41.1983 93.4266 40.905 94.2799C40.6117 95.1332 40.3317 95.9466 40.065 96.7199C39.825 97.4666 39.5983 98.1332 39.385 98.7199C39.1983 99.2799 39.065 99.6799 38.985 99.9199C38.585 101.067 38.1717 102.213 37.745 103.36C37.345 104.507 36.9183 105.653 36.465 106.8C36.305 107.227 36.1317 107.667 35.945 108.12C35.785 108.547 35.5183 108.893 35.145 109.16C34.8517 109.347 34.5317 109.467 34.185 109.52C33.865 109.573 33.5317 109.613 33.185 109.64ZM56.7712 107.52C56.2912 107.573 55.6646 107.587 54.8912 107.56C54.1179 107.507 53.3179 107.427 52.4912 107.32C51.6912 107.187 50.9179 107.013 50.1712 106.8C49.4512 106.587 48.9179 106.333 48.5712 106.04C48.4646 105.96 48.3846 105.827 48.3312 105.64C48.3046 105.453 48.2912 105.253 48.2912 105.04C48.2912 104.827 48.2912 104.627 48.2912 104.44C48.3179 104.227 48.3312 104.053 48.3312 103.92C48.3846 101.413 48.4779 98.9466 48.6112 96.5199C48.7712 94.0666 48.9446 91.5999 49.1312 89.1199C49.2646 87.4666 49.3979 85.8266 49.5312 84.1999C49.6646 82.5732 49.7579 80.9332 49.8112 79.2799C49.8112 79.0666 49.8246 78.8532 49.8512 78.6399C49.8779 78.4266 49.9712 78.2532 50.1312 78.1199C50.2379 78.0399 50.3979 77.9732 50.6112 77.9199C50.8512 77.8666 51.1046 77.8266 51.3712 77.7999C51.6379 77.7732 51.8912 77.7599 52.1312 77.7599C52.3712 77.7332 52.5579 77.7199 52.6912 77.7199C53.8379 77.6399 54.9846 77.6132 56.1312 77.6399C57.3046 77.6399 58.4646 77.7199 59.6112 77.8799C59.7712 77.9066 59.9846 77.9466 60.2512 77.9999C60.5179 78.0532 60.7846 78.1199 61.0512 78.1999C61.3446 78.2532 61.5979 78.3332 61.8112 78.4399C62.0512 78.5466 62.2112 78.6799 62.2912 78.8399C62.4246 79.1332 62.4512 79.4799 62.3712 79.8799C61.9712 81.7999 61.6379 83.7332 61.3712 85.6799C61.1046 87.5999 60.8646 89.5466 60.6512 91.5199C60.4912 93.0399 60.3446 94.5466 60.2112 96.0399C60.1046 97.5332 59.9846 99.0399 59.8512 100.56C59.8512 100.747 59.8246 101.107 59.7712 101.64C59.7446 102.173 59.7046 102.747 59.6512 103.36C59.5979 103.947 59.5312 104.507 59.4512 105.04C59.3979 105.573 59.3579 105.933 59.3312 106.12V106.2C59.3312 106.227 59.3446 106.24 59.3712 106.24C59.4246 106.533 59.3712 106.76 59.2112 106.92C59.0779 107.08 58.8779 107.2 58.6112 107.28C58.3446 107.36 58.0379 107.413 57.6912 107.44C57.3712 107.467 57.0646 107.493 56.7712 107.52ZM85.0937 109.44C84.7471 109.547 84.2138 109.627 83.4938 109.68C82.7738 109.76 81.9604 109.8 81.0537 109.8C80.1738 109.827 79.2404 109.827 78.2538 109.8C77.2671 109.8 76.3204 109.787 75.4137 109.76C74.5071 109.733 73.6804 109.707 72.9337 109.68C72.2137 109.653 71.6671 109.627 71.2937 109.6C70.9471 109.6 70.6004 109.6 70.2537 109.6C69.9337 109.627 69.6004 109.613 69.2537 109.56C69.0937 109.533 68.9337 109.493 68.7737 109.44C68.6137 109.413 68.4804 109.333 68.3737 109.2C68.2137 109.04 68.1337 108.84 68.1337 108.6C68.0804 108.093 68.0137 107.227 67.9337 106C67.8537 104.747 67.7604 103.333 67.6537 101.76C67.5471 100.16 67.4271 98.4799 67.2937 96.7199C67.1871 94.9599 67.0671 93.2932 66.9337 91.7199C66.8271 90.1199 66.7204 88.7066 66.6137 87.4799C66.5071 86.2532 66.4137 85.3866 66.3337 84.8799C66.2804 84.5866 66.2404 84.2532 66.2137 83.8799C66.2137 83.5066 66.3471 83.2532 66.6137 83.1199C67.2271 82.7999 67.8671 82.5999 68.5337 82.5199C69.2271 82.4399 69.9071 82.3466 70.5737 82.2399C73.1604 81.9466 75.7337 81.7332 78.2937 81.5999C80.8804 81.4399 83.4671 81.3066 86.0538 81.1999C86.1871 81.1999 86.3071 81.2132 86.4138 81.2399C86.5204 81.2399 86.6271 81.2666 86.7337 81.3199C86.8671 81.3999 86.9604 81.5332 87.0138 81.7199C87.0938 81.9066 87.1338 82.1199 87.1338 82.3599C87.1604 82.5999 87.1738 82.8399 87.1738 83.0799C87.1738 83.2932 87.1738 83.4799 87.1738 83.6399C87.1471 84.4132 87.1071 85.1732 87.0538 85.9199C87.0271 86.6399 86.9871 87.3866 86.9337 88.1599C86.9071 88.4532 86.8137 88.7466 86.6538 89.0399C86.5204 89.3066 86.2938 89.4399 85.9737 89.4399C84.4538 89.4399 82.9338 89.4799 81.4137 89.5599C79.9204 89.6132 78.4138 89.6666 76.8937 89.7199C76.8937 90.0932 76.8937 90.4666 76.8937 90.8399C76.9204 91.2132 76.9471 91.5866 76.9737 91.9599C77.1338 91.9599 77.4404 91.9599 77.8937 91.9599C78.3738 91.9332 78.8804 91.9199 79.4137 91.9199C79.9471 91.8932 80.4404 91.8799 80.8937 91.8799C81.3737 91.8532 81.6937 91.8399 81.8538 91.8399C82.0404 91.8399 82.2404 91.8399 82.4537 91.8399C82.6937 91.8132 82.9071 91.8132 83.0937 91.8399C83.3071 91.8666 83.4671 91.9332 83.5737 92.0399C83.7071 92.1199 83.7738 92.2532 83.7738 92.4399C83.7738 92.5732 83.7738 92.8666 83.7738 93.3199C83.7738 93.7466 83.7604 94.2132 83.7337 94.7199C83.7337 95.2266 83.7204 95.7066 83.6938 96.1599C83.6938 96.5866 83.6938 96.8666 83.6938 96.9999C83.6938 97.4266 83.6538 97.8532 83.5737 98.2799C83.5204 98.7066 83.2804 98.9199 82.8538 98.9199C81.8404 98.9199 80.8404 98.9199 79.8537 98.9199C78.8671 98.8932 77.8804 98.9199 76.8937 98.9999C76.8671 99.1332 76.8538 99.3466 76.8538 99.6399C76.8538 99.9332 76.8538 100.253 76.8538 100.6C76.8804 100.947 76.9071 101.28 76.9338 101.6C76.9604 101.893 76.9737 102.107 76.9737 102.24C78.4137 102.107 79.8537 102.053 81.2938 102.08C82.7338 102.08 84.1737 102.067 85.6137 102.04C86.0138 102.04 86.2404 102.24 86.2938 102.64C86.3738 103.04 86.4004 103.44 86.3737 103.84C86.3737 103.973 86.3604 104.253 86.3337 104.68C86.3071 105.08 86.2804 105.52 86.2538 106C86.2271 106.48 86.2004 106.933 86.1737 107.36C86.1471 107.76 86.1337 108.027 86.1337 108.16C86.1071 108.453 86.0004 108.72 85.8137 108.96C85.6271 109.173 85.3871 109.333 85.0937 109.44ZM102.331 109.8C101.345 109.827 100.345 109.787 99.3313 109.68C98.3446 109.573 97.3979 109.333 96.4913 108.96C95.9313 108.747 95.3979 108.453 94.8913 108.08C94.4113 107.707 94.0246 107.253 93.7313 106.72C93.4113 106.08 93.1579 105.413 92.9713 104.72C92.8113 104 92.6779 103.28 92.5713 102.56C92.2779 100.827 92.0646 99.1066 91.9313 97.3999C91.8246 95.6932 91.7446 93.9599 91.6913 92.1999C91.6379 90.3599 91.6379 88.5199 91.6913 86.6799C91.7713 84.8132 91.9446 82.9599 92.2113 81.1199C92.2113 81.0132 92.2246 80.8666 92.2513 80.6799C92.2779 80.4666 92.3046 80.2532 92.3313 80.0399C92.3579 79.8266 92.3846 79.6266 92.4113 79.4399C92.4646 79.2532 92.5179 79.1199 92.5713 79.0399C92.6513 78.9332 92.7846 78.8399 92.9713 78.7599C93.1846 78.6532 93.3979 78.5599 93.6113 78.4799C93.8513 78.3999 94.0779 78.3466 94.2913 78.3199C94.5313 78.2666 94.7179 78.2266 94.8513 78.1999C96.5046 77.9599 98.1313 77.9332 99.7313 78.1199C99.9713 78.1466 100.265 78.1732 100.611 78.1999C100.958 78.1999 101.305 78.2266 101.651 78.2799C101.998 78.3332 102.305 78.4266 102.571 78.5599C102.865 78.6666 103.051 78.8266 103.131 79.0399C103.238 79.2532 103.265 79.4932 103.211 79.7599C103.025 80.7732 102.878 81.7999 102.771 82.8399C102.665 83.8799 102.545 84.9199 102.411 85.9599C102.278 87.4799 102.145 88.9866 102.011 90.4799C101.878 91.9732 101.838 93.4799 101.891 94.9999C102.398 93.7999 102.851 92.5999 103.251 91.3999C103.678 90.1999 104.158 88.9999 104.691 87.7999C104.798 87.5599 104.945 87.2399 105.131 86.8399C105.345 86.4399 105.571 86.0399 105.811 85.6399C106.051 85.2399 106.305 84.8799 106.571 84.5599C106.865 84.2132 107.131 83.9999 107.371 83.9199C107.531 83.8666 107.785 83.8399 108.131 83.8399C108.478 83.8132 108.851 83.7999 109.251 83.7999C109.651 83.7999 110.025 83.8132 110.371 83.8399C110.745 83.8399 111.011 83.8399 111.171 83.8399C111.331 83.8399 111.558 83.8532 111.851 83.8799C112.145 83.9066 112.438 83.9466 112.731 83.9999C113.025 84.0532 113.291 84.1332 113.531 84.2399C113.798 84.3199 113.985 84.4266 114.091 84.5599C114.305 84.7999 114.531 85.2132 114.771 85.7999C115.038 86.3599 115.305 87.0132 115.571 87.7599C115.865 88.5066 116.145 89.3066 116.411 90.1599C116.705 90.9866 116.971 91.7866 117.211 92.5599C117.478 93.3066 117.705 93.9866 117.891 94.5999C118.105 95.1866 118.278 95.6266 118.411 95.9199C118.465 93.7066 118.478 91.4932 118.451 89.2799C118.425 87.0666 118.331 84.8532 118.171 82.6399C118.171 82.5332 118.145 82.3732 118.091 82.1599C118.065 81.9466 118.038 81.7199 118.011 81.4799C118.011 81.2399 117.998 81.0132 117.971 80.7999C117.971 80.5599 117.985 80.3999 118.011 80.3199C118.065 80.0799 118.185 79.9066 118.371 79.7999C118.585 79.6666 118.825 79.5732 119.091 79.5199C119.358 79.4399 119.625 79.3866 119.891 79.3599C120.185 79.3332 120.451 79.3199 120.691 79.3199C121.705 79.2932 122.718 79.3066 123.731 79.3599C124.745 79.4132 125.758 79.5199 126.771 79.6799C127.358 79.7599 127.758 80.1199 127.971 80.7599C128.105 81.2666 128.145 81.7732 128.091 82.2799C128.038 82.7866 128.011 83.3066 128.011 83.8399C128.065 86.3466 128.038 88.8266 127.931 91.2799C127.851 93.7332 127.691 96.1999 127.451 98.6799C127.318 99.7999 127.158 100.907 126.971 102C126.811 103.093 126.558 104.16 126.211 105.2C126.078 105.627 125.918 106.04 125.731 106.44C125.545 106.84 125.318 107.227 125.051 107.6C124.891 107.84 124.705 108.067 124.491 108.28C124.278 108.467 124.025 108.627 123.731 108.76C123.411 108.92 123.065 109.04 122.691 109.12C122.345 109.2 121.985 109.267 121.611 109.32C121.131 109.4 120.505 109.453 119.731 109.48C118.958 109.533 118.171 109.533 117.371 109.48C116.598 109.453 115.865 109.36 115.171 109.2C114.478 109.04 113.958 108.787 113.611 108.44C113.398 108.253 113.238 108.04 113.131 107.8C113.025 107.533 112.945 107.267 112.891 107C112.811 106.733 112.705 106.28 112.571 105.64C112.465 105 112.331 104.267 112.171 103.44C112.011 102.613 111.851 101.747 111.691 100.84C111.531 99.9066 111.371 99.0266 111.211 98.1999C111.078 97.3732 110.958 96.6399 110.851 95.9999C110.745 95.3332 110.665 94.8666 110.611 94.5999C110.505 95.0532 110.345 95.6799 110.131 96.4799C109.945 97.2532 109.718 98.1066 109.451 99.0399C109.211 99.9732 108.945 100.947 108.651 101.96C108.358 102.973 108.038 103.933 107.691 104.84C107.371 105.747 107.038 106.56 106.691 107.28C106.371 107.973 106.051 108.493 105.731 108.84C105.331 109.267 104.811 109.52 104.171 109.6C103.531 109.707 102.918 109.773 102.331 109.8Z" fill="black"/>
</g>
<defs>
<clipPath id="clip0_91_6">
<rect width="141" height="141" fill="white"/>
</clipPath>
</defs>
</svg>
