<svg width="141" height="141" viewBox="0 0 141 141" fill="none" xmlns="http://www.w3.org/2000/svg">
<circle cx="70.5" cy="70.5" r="70.5" fill="#22C55E"/>
<path d="M58.0994 56.52C57.6194 56.5733 56.9927 56.5867 56.2194 56.56C55.446 56.5067 54.646 56.4267 53.8194 56.32C53.0194 56.1867 52.246 56.0133 51.4994 55.8C50.7794 55.5867 50.246 55.3333 49.8994 55.04C49.7927 54.96 49.7127 54.8267 49.6594 54.64C49.6327 54.4533 49.6194 54.2533 49.6194 54.04C49.6194 53.8267 49.6194 53.6267 49.6194 53.44C49.646 53.2267 49.6594 53.0533 49.6594 52.92C49.7127 50.4133 49.806 47.9467 49.9394 45.52C50.0994 43.0667 50.2727 40.6 50.4594 38.12C50.5927 36.4667 50.726 34.8267 50.8594 33.2C50.9927 31.5733 51.086 29.9333 51.1394 28.28C51.1394 28.0667 51.1527 27.8533 51.1794 27.64C51.206 27.4267 51.2994 27.2533 51.4594 27.12C51.566 27.04 51.726 26.9733 51.9394 26.92C52.1794 26.8667 52.4327 26.8267 52.6994 26.8C52.966 26.7733 53.2194 26.76 53.4594 26.76C53.6994 26.7333 53.886 26.72 54.0194 26.72C55.166 26.64 56.3127 26.6133 57.4594 26.64C58.6327 26.64 59.7927 26.72 60.9394 26.88C61.0994 26.9067 61.3127 26.9467 61.5794 27C61.846 27.0533 62.1127 27.12 62.3794 27.2C62.6727 27.2533 62.926 27.3333 63.1394 27.44C63.3794 27.5467 63.5394 27.68 63.6194 27.84C63.7527 28.1333 63.7794 28.48 63.6994 28.88C63.2994 30.8 62.966 32.7333 62.6994 34.68C62.4327 36.6 62.1927 38.5467 61.9794 40.52C61.8194 42.04 61.6727 43.5467 61.5394 45.04C61.4327 46.5333 61.3127 48.04 61.1794 49.56C61.1794 49.7467 61.1527 50.1067 61.0994 50.64C61.0727 51.1733 61.0327 51.7467 60.9794 52.36C60.926 52.9467 60.8594 53.5067 60.7794 54.04C60.726 54.5733 60.686 54.9333 60.6594 55.12V55.2C60.6594 55.2267 60.6727 55.24 60.6994 55.24C60.7527 55.5333 60.6994 55.76 60.5394 55.92C60.406 56.08 60.206 56.2 59.9394 56.28C59.6727 56.36 59.366 56.4133 59.0194 56.44C58.6994 56.4667 58.3927 56.4933 58.0994 56.52ZM82.5819 59.76C81.3552 59.8667 80.1285 59.9067 78.9019 59.88C77.6752 59.8533 76.4485 59.8133 75.2219 59.76C75.0352 59.76 74.8485 59.72 74.6619 59.64C74.4752 59.56 74.3285 59.4533 74.2219 59.32C74.0885 59.1333 73.9952 58.9333 73.9419 58.72C73.9152 58.5067 73.8885 58.2933 73.8619 58.08C73.6485 54.9333 73.6085 51.8 73.7419 48.68C73.9019 45.5333 74.1152 42.3867 74.3819 39.24C73.5819 39.24 72.7819 39.2667 71.9819 39.32C71.2085 39.3467 70.4219 39.3867 69.6219 39.44C69.3819 39.44 69.1285 39.44 68.8619 39.44C68.5952 39.44 68.3419 39.4133 68.1019 39.36C67.8885 39.3067 67.7019 39.2267 67.5419 39.12C67.4085 39.0133 67.3285 38.84 67.3019 38.6C67.0085 35.56 67.0085 32.5333 67.3019 29.52C67.3285 29.3067 67.3685 29.1067 67.4219 28.92C67.4752 28.7333 67.5685 28.5733 67.7019 28.44C67.9152 28.2267 68.1552 28.0933 68.4219 28.04C68.7152 27.9867 69.0085 27.96 69.3019 27.96C69.6485 27.96 70.2352 27.9333 71.0619 27.88C71.8885 27.8267 72.8485 27.7733 73.9419 27.72C75.0352 27.64 76.1819 27.56 77.3819 27.48C78.5819 27.3733 79.7285 27.28 80.8219 27.2C81.9152 27.12 82.8752 27.0533 83.7019 27C84.5285 26.9467 85.1152 26.9067 85.4619 26.88C85.7019 26.88 86.0885 26.8667 86.6219 26.84C87.1819 26.8133 87.7552 26.8 88.3419 26.8C88.9552 26.8 89.5285 26.8133 90.0619 26.84C90.6219 26.8667 91.0085 26.9067 91.2219 26.96C91.4352 27.0133 91.6085 27.12 91.7419 27.28C91.9019 27.44 91.9819 27.6133 91.9819 27.8C91.9819 28.04 91.9819 28.4267 91.9819 28.96C92.0085 29.4933 92.0219 30.12 92.0219 30.84C92.0219 31.56 92.0219 32.3067 92.0219 33.08C92.0219 33.8533 92.0219 34.6 92.0219 35.32C92.0219 36.04 92.0219 36.68 92.0219 37.24C92.0219 37.7733 92.0219 38.1467 92.0219 38.36C92.0219 38.5733 91.9685 38.8 91.8619 39.04C91.7552 39.2533 91.5952 39.3867 91.3819 39.44C91.1419 39.52 90.6885 39.5733 90.0219 39.6C89.3819 39.6 88.6885 39.6133 87.9419 39.64C87.1952 39.64 86.4885 39.64 85.8219 39.64C85.1552 39.64 84.7019 39.6533 84.4619 39.68C84.3285 41.9467 84.2619 44.1867 84.2619 46.4C84.2885 48.6133 84.3552 50.8533 84.4619 53.12C84.4619 53.28 84.4885 53.6267 84.5419 54.16C84.5952 54.6667 84.6485 55.2133 84.7019 55.8C84.7819 56.3867 84.8352 56.9333 84.8619 57.44C84.9152 57.9467 84.9419 58.28 84.9419 58.44C84.9419 58.7067 84.8619 58.92 84.7019 59.08C84.5685 59.24 84.3819 59.36 84.1419 59.44C83.9285 59.5467 83.6752 59.6133 83.3819 59.64C83.1152 59.6933 82.8485 59.7333 82.5819 59.76Z" fill="white"/>
<path d="M33.185 109.64C31.665 109.747 30.145 109.76 28.625 109.68C27.105 109.627 25.585 109.507 24.065 109.32C23.6917 109.267 23.305 109.24 22.905 109.24C22.5317 109.24 22.1583 109.173 21.785 109.04C21.625 108.987 21.465 108.907 21.305 108.8C21.145 108.667 21.0383 108.52 20.985 108.36C20.8783 108.12 20.7317 107.733 20.545 107.2C20.385 106.64 20.185 106 19.945 105.28C19.7317 104.56 19.505 103.8 19.265 103C19.0517 102.2 18.8383 101.44 18.625 100.72C18.4117 100 18.225 99.36 18.065 98.8C17.905 98.24 17.785 97.84 17.705 97.6C17.1183 95.68 16.5183 93.7867 15.905 91.92C15.2917 90.0267 14.6383 88.1333 13.945 86.24C13.8917 86.1333 13.785 85.8933 13.625 85.52C13.465 85.1467 13.2917 84.76 13.105 84.36C12.945 83.96 12.785 83.5867 12.625 83.24C12.465 82.8667 12.3583 82.6133 12.305 82.48C12.2783 82.4 12.225 82.28 12.145 82.12C12.065 81.9333 11.985 81.7467 11.905 81.56C11.825 81.3467 11.7583 81.1467 11.705 80.96C11.6517 80.7733 11.625 80.64 11.625 80.56C11.625 80.3467 11.6917 80.1467 11.825 79.96C11.985 79.7733 12.145 79.6133 12.305 79.48C12.8117 79.0267 13.385 78.68 14.025 78.44C14.665 78.2 15.305 77.9733 15.945 77.76C16.1583 77.68 16.545 77.5733 17.105 77.44C17.665 77.28 18.265 77.12 18.905 76.96C19.545 76.8 20.145 76.6667 20.705 76.56C21.2917 76.4267 21.705 76.36 21.945 76.36C22.505 76.3067 22.8917 76.5867 23.105 77.2C23.7183 78.8 24.2783 80.4 24.785 82C25.3183 83.6 25.8517 85.2133 26.385 86.84C26.9183 88.6 27.4517 90.3467 27.985 92.08C28.545 93.7867 29.0783 95.52 29.585 97.28C29.6383 97.0933 29.7183 96.7867 29.825 96.36C29.9317 95.9067 30.0517 95.3867 30.185 94.8C30.345 94.2133 30.4917 93.6 30.625 92.96C30.785 92.32 30.9317 91.7067 31.065 91.12C31.1983 90.5333 31.305 90.0267 31.385 89.6C31.4917 89.1467 31.5717 88.8267 31.625 88.64C31.8383 87.7067 32.0517 86.7733 32.265 85.84C32.505 84.9067 32.7583 83.9733 33.025 83.04C33.0517 82.96 33.0783 82.8533 33.105 82.72C33.1583 82.56 33.2117 82.4 33.265 82.24C33.3183 82.08 33.3717 81.9333 33.425 81.8C33.505 81.6667 33.5717 81.5733 33.625 81.52C33.7583 81.36 33.945 81.2533 34.185 81.2C34.425 81.12 34.6517 81.0667 34.865 81.04C36.3317 80.9867 37.785 81.1467 39.225 81.52C40.665 81.8667 42.105 82.24 43.545 82.64C43.865 82.72 44.145 82.88 44.385 83.12C44.625 83.3333 44.6783 83.5867 44.545 83.88C44.545 83.9067 44.5317 83.92 44.505 83.92C44.505 83.92 44.505 83.9333 44.505 83.96C44.345 84.7867 44.105 85.5867 43.785 86.36C43.465 87.1333 43.1583 87.9067 42.865 88.68C42.785 88.8933 42.6383 89.2933 42.425 89.88C42.2383 90.4667 42.0117 91.1333 41.745 91.88C41.4783 92.6267 41.1983 93.4267 40.905 94.28C40.6117 95.1333 40.3317 95.9467 40.065 96.72C39.825 97.4667 39.5983 98.1333 39.385 98.72C39.1983 99.28 39.065 99.68 38.985 99.92C38.585 101.067 38.1717 102.213 37.745 103.36C37.345 104.507 36.9183 105.653 36.465 106.8C36.305 107.227 36.1317 107.667 35.945 108.12C35.785 108.547 35.5183 108.893 35.145 109.16C34.8517 109.347 34.5317 109.467 34.185 109.52C33.865 109.573 33.5317 109.613 33.185 109.64ZM56.7712 107.52C56.2912 107.573 55.6646 107.587 54.8912 107.56C54.1179 107.507 53.3179 107.427 52.4912 107.32C51.6912 107.187 50.9179 107.013 50.1712 106.8C49.4512 106.587 48.9179 106.333 48.5712 106.04C48.4646 105.96 48.3846 105.827 48.3312 105.64C48.3046 105.453 48.2912 105.253 48.2912 105.04C48.2912 104.827 48.2912 104.627 48.2912 104.44C48.3179 104.227 48.3312 104.053 48.3312 103.92C48.3846 101.413 48.4779 98.9467 48.6112 96.52C48.7712 94.0667 48.9446 91.6 49.1312 89.12C49.2646 87.4667 49.3979 85.8267 49.5312 84.2C49.6646 82.5733 49.7579 80.9333 49.8112 79.28C49.8112 79.0667 49.8246 78.8533 49.8512 78.64C49.8779 78.4267 49.9712 78.2533 50.1312 78.12C50.2379 78.04 50.3979 77.9733 50.6112 77.92C50.8512 77.8667 51.1046 77.8267 51.3712 77.8C51.6379 77.7733 51.8912 77.76 52.1312 77.76C52.3712 77.7333 52.5579 77.72 52.6912 77.72C53.8379 77.64 54.9846 77.6133 56.1312 77.64C57.3046 77.64 58.4646 77.72 59.6112 77.88C59.7712 77.9067 59.9846 77.9467 60.2512 78C60.5179 78.0533 60.7846 78.12 61.0512 78.2C61.3446 78.2533 61.5979 78.3333 61.8112 78.44C62.0512 78.5467 62.2112 78.68 62.2912 78.84C62.4246 79.1333 62.4512 79.48 62.3712 79.88C61.9712 81.8 61.6379 83.7333 61.3712 85.68C61.1046 87.6 60.8646 89.5467 60.6512 91.52C60.4912 93.04 60.3446 94.5467 60.2112 96.04C60.1046 97.5333 59.9846 99.04 59.8512 100.56C59.8512 100.747 59.8246 101.107 59.7712 101.64C59.7446 102.173 59.7046 102.747 59.6512 103.36C59.5979 103.947 59.5312 104.507 59.4512 105.04C59.3979 105.573 59.3579 105.933 59.3312 106.12V106.2C59.3312 106.227 59.3446 106.24 59.3712 106.24C59.4246 106.533 59.3712 106.76 59.2112 106.92C59.0779 107.08 58.8779 107.2 58.6112 107.28C58.3446 107.36 58.0379 107.413 57.6912 107.44C57.3712 107.467 57.0646 107.493 56.7712 107.52ZM85.0937 109.44C84.7471 109.547 84.2138 109.627 83.4938 109.68C82.7738 109.76 81.9604 109.8 81.0537 109.8C80.1738 109.827 79.2404 109.827 78.2538 109.8C77.2671 109.8 76.3204 109.787 75.4137 109.76C74.5071 109.733 73.6804 109.707 72.9337 109.68C72.2137 109.653 71.6671 109.627 71.2937 109.6C70.9471 109.6 70.6004 109.6 70.2537 109.6C69.9337 109.627 69.6004 109.613 69.2537 109.56C69.0937 109.533 68.9337 109.493 68.7737 109.44C68.6137 109.413 68.4804 109.333 68.3737 109.2C68.2137 109.04 68.1337 108.84 68.1337 108.6C68.0804 108.093 68.0137 107.227 67.9337 106C67.8537 104.747 67.7604 103.333 67.6537 101.76C67.5471 100.16 67.4271 98.48 67.2937 96.72C67.1871 94.96 67.0671 93.2933 66.9337 91.72C66.8271 90.12 66.7204 88.7067 66.6137 87.48C66.5071 86.2533 66.4137 85.3867 66.3337 84.88C66.2804 84.5867 66.2404 84.2533 66.2137 83.88C66.2137 83.5067 66.3471 83.2533 66.6137 83.12C67.2271 82.8 67.8671 82.6 68.5337 82.52C69.2271 82.44 69.9071 82.3467 70.5737 82.24C73.1604 81.9467 75.7337 81.7333 78.2937 81.6C80.8804 81.44 83.4671 81.3067 86.0538 81.2C86.1871 81.2 86.3071 81.2133 86.4138 81.24C86.5204 81.24 86.6271 81.2667 86.7337 81.32C86.8671 81.4 86.9604 81.5333 87.0138 81.72C87.0938 81.9067 87.1338 82.12 87.1338 82.36C87.1604 82.6 87.1738 82.84 87.1738 83.08C87.1738 83.2933 87.1738 83.48 87.1738 83.64C87.1471 84.4133 87.1071 85.1733 87.0538 85.92C87.0271 86.64 86.9871 87.3867 86.9337 88.16C86.9071 88.4533 86.8137 88.7467 86.6538 89.04C86.5204 89.3067 86.2938 89.44 85.9737 89.44C84.4538 89.44 82.9338 89.48 81.4137 89.56C79.9204 89.6133 78.4138 89.6667 76.8937 89.72C76.8937 90.0933 76.8937 90.4667 76.8937 90.84C76.9204 91.2133 76.9471 91.5867 76.9737 91.96C77.1338 91.96 77.4404 91.96 77.8937 91.96C78.3738 91.9333 78.8804 91.92 79.4137 91.92C79.9471 91.8933 80.4404 91.88 80.8937 91.88C81.3737 91.8533 81.6937 91.84 81.8538 91.84C82.0404 91.84 82.2404 91.84 82.4537 91.84C82.6937 91.8133 82.9071 91.8133 83.0937 91.84C83.3071 91.8667 83.4671 91.9333 83.5737 92.04C83.7071 92.12 83.7738 92.2533 83.7738 92.44C83.7738 92.5733 83.7738 92.8667 83.7738 93.32C83.7738 93.7467 83.7604 94.2133 83.7337 94.72C83.7337 95.2267 83.7204 95.7067 83.6938 96.16C83.6938 96.5867 83.6938 96.8667 83.6938 97C83.6938 97.4267 83.6538 97.8533 83.5737 98.28C83.5204 98.7067 83.2804 98.92 82.8538 98.92C81.8404 98.92 80.8404 98.92 79.8537 98.92C78.8671 98.8933 77.8804 98.92 76.8937 99C76.8671 99.1333 76.8538 99.3467 76.8538 99.64C76.8538 99.9333 76.8538 100.253 76.8538 100.6C76.8804 100.947 76.9071 101.28 76.9338 101.6C76.9604 101.893 76.9737 102.107 76.9737 102.24C78.4137 102.107 79.8537 102.053 81.2938 102.08C82.7338 102.08 84.1737 102.067 85.6137 102.04C86.0138 102.04 86.2404 102.24 86.2938 102.64C86.3738 103.04 86.4004 103.44 86.3737 103.84C86.3737 103.973 86.3604 104.253 86.3337 104.68C86.3071 105.08 86.2804 105.52 86.2538 106C86.2271 106.48 86.2004 106.933 86.1737 107.36C86.1471 107.76 86.1337 108.027 86.1337 108.16C86.1071 108.453 86.0004 108.72 85.8137 108.96C85.6271 109.173 85.3871 109.333 85.0937 109.44ZM102.331 109.8C101.345 109.827 100.345 109.787 99.3313 109.68C98.3446 109.573 97.3979 109.333 96.4913 108.96C95.9313 108.747 95.3979 108.453 94.8913 108.08C94.4113 107.707 94.0246 107.253 93.7313 106.72C93.4113 106.08 93.1579 105.413 92.9713 104.72C92.8113 104 92.6779 103.28 92.5713 102.56C92.2779 100.827 92.0646 99.1067 91.9313 97.4C91.8246 95.6933 91.7446 93.96 91.6913 92.2C91.6379 90.36 91.6379 88.52 91.6913 86.68C91.7713 84.8133 91.9446 82.96 92.2113 81.12C92.2113 81.0133 92.2246 80.8667 92.2513 80.68C92.2779 80.4667 92.3046 80.2533 92.3313 80.04C92.3579 79.8267 92.3846 79.6267 92.4113 79.44C92.4646 79.2533 92.5179 79.12 92.5713 79.04C92.6513 78.9333 92.7846 78.84 92.9713 78.76C93.1846 78.6533 93.3979 78.56 93.6113 78.48C93.8513 78.4 94.0779 78.3467 94.2913 78.32C94.5313 78.2667 94.7179 78.2267 94.8513 78.2C96.5046 77.96 98.1313 77.9333 99.7313 78.12C99.9713 78.1467 100.265 78.1733 100.611 78.2C100.958 78.2 101.305 78.2267 101.651 78.28C101.998 78.3333 102.305 78.4267 102.571 78.56C102.865 78.6667 103.051 78.8267 103.131 79.04C103.238 79.2533 103.265 79.4933 103.211 79.76C103.025 80.7733 102.878 81.8 102.771 82.84C102.665 83.88 102.545 84.92 102.411 85.96C102.278 87.48 102.145 88.9867 102.011 90.48C101.878 91.9733 101.838 93.48 101.891 95C102.398 93.8 102.851 92.6 103.251 91.4C103.678 90.2 104.158 89 104.691 87.8C104.798 87.56 104.945 87.24 105.131 86.84C105.345 86.44 105.571 86.04 105.811 85.64C106.051 85.24 106.305 84.88 106.571 84.56C106.865 84.2133 107.131 84 107.371 83.92C107.531 83.8667 107.785 83.84 108.131 83.84C108.478 83.8133 108.851 83.8 109.251 83.8C109.651 83.8 110.025 83.8133 110.371 83.84C110.745 83.84 111.011 83.84 111.171 83.84C111.331 83.84 111.558 83.8533 111.851 83.88C112.145 83.9067 112.438 83.9467 112.731 84C113.025 84.0533 113.291 84.1333 113.531 84.24C113.798 84.32 113.985 84.4267 114.091 84.56C114.305 84.8 114.531 85.2133 114.771 85.8C115.038 86.36 115.305 87.0133 115.571 87.76C115.865 88.5067 116.145 89.3067 116.411 90.16C116.705 90.9867 116.971 91.7867 117.211 92.56C117.478 93.3067 117.705 93.9867 117.891 94.6C118.105 95.1867 118.278 95.6267 118.411 95.92C118.465 93.7067 118.478 91.4933 118.451 89.28C118.425 87.0667 118.331 84.8533 118.171 82.64C118.171 82.5333 118.145 82.3733 118.091 82.16C118.065 81.9467 118.038 81.72 118.011 81.48C118.011 81.24 117.998 81.0133 117.971 80.8C117.971 80.56 117.985 80.4 118.011 80.32C118.065 80.08 118.185 79.9067 118.371 79.8C118.585 79.6667 118.825 79.5733 119.091 79.52C119.358 79.44 119.625 79.3867 119.891 79.36C120.185 79.3333 120.451 79.32 120.691 79.32C121.705 79.2933 122.718 79.3067 123.731 79.36C124.745 79.4133 125.758 79.52 126.771 79.68C127.358 79.76 127.758 80.12 127.971 80.76C128.105 81.2667 128.145 81.7733 128.091 82.28C128.038 82.7867 128.011 83.3067 128.011 83.84C128.065 86.3467 128.038 88.8267 127.931 91.28C127.851 93.7333 127.691 96.2 127.451 98.68C127.318 99.8 127.158 100.907 126.971 102C126.811 103.093 126.558 104.16 126.211 105.2C126.078 105.627 125.918 106.04 125.731 106.44C125.545 106.84 125.318 107.227 125.051 107.6C124.891 107.84 124.705 108.067 124.491 108.28C124.278 108.467 124.025 108.627 123.731 108.76C123.411 108.92 123.065 109.04 122.691 109.12C122.345 109.2 121.985 109.267 121.611 109.32C121.131 109.4 120.505 109.453 119.731 109.48C118.958 109.533 118.171 109.533 117.371 109.48C116.598 109.453 115.865 109.36 115.171 109.2C114.478 109.04 113.958 108.787 113.611 108.44C113.398 108.253 113.238 108.04 113.131 107.8C113.025 107.533 112.945 107.267 112.891 107C112.811 106.733 112.705 106.28 112.571 105.64C112.465 105 112.331 104.267 112.171 103.44C112.011 102.613 111.851 101.747 111.691 100.84C111.531 99.9067 111.371 99.0267 111.211 98.2C111.078 97.3733 110.958 96.64 110.851 96C110.745 95.3333 110.665 94.8667 110.611 94.6C110.505 95.0533 110.345 95.68 110.131 96.48C109.945 97.2533 109.718 98.1067 109.451 99.04C109.211 99.9733 108.945 100.947 108.651 101.96C108.358 102.973 108.038 103.933 107.691 104.84C107.371 105.747 107.038 106.56 106.691 107.28C106.371 107.973 106.051 108.493 105.731 108.84C105.331 109.267 104.811 109.52 104.171 109.6C103.531 109.707 102.918 109.773 102.331 109.8Z" fill="black"/>
</svg>
