<svg width="318" height="60" viewBox="0 0 318 60" fill="none" xmlns="http://www.w3.org/2000/svg">
<path d="M184.905 55.495C184.515 55.615 183.915 55.705 183.105 55.765C182.295 55.855 181.38 55.9 180.36 55.9C179.37 55.93 178.32 55.93 177.21 55.9C176.1 55.9 175.035 55.885 174.015 55.855C172.995 55.825 172.065 55.795 171.225 55.765C170.415 55.735 169.8 55.705 169.38 55.675C168.99 55.675 168.6 55.675 168.21 55.675C167.85 55.705 167.475 55.69 167.085 55.63C166.905 55.6 166.725 55.555 166.545 55.495C166.365 55.465 166.215 55.375 166.095 55.225C165.915 55.045 165.825 54.82 165.825 54.55C165.765 53.98 165.69 53.005 165.6 51.625C165.51 50.215 165.405 48.625 165.285 46.855C165.165 45.055 165.03 43.165 164.88 41.185C164.76 39.205 164.625 37.33 164.475 35.56C164.355 33.76 164.235 32.17 164.115 30.79C163.995 29.41 163.89 28.435 163.8 27.865C163.74 27.535 163.695 27.16 163.665 26.74C163.665 26.32 163.815 26.035 164.115 25.885C164.805 25.525 165.525 25.3 166.275 25.21C167.055 25.12 167.82 25.015 168.57 24.895C171.48 24.565 174.375 24.325 177.255 24.175C180.165 23.995 183.075 23.845 185.985 23.725C186.135 23.725 186.27 23.74 186.39 23.77C186.51 23.77 186.63 23.8 186.75 23.86C186.9 23.95 187.005 24.1 187.065 24.31C187.155 24.52 187.2 24.76 187.2 25.03C187.23 25.3 187.245 25.57 187.245 25.84C187.245 26.08 187.245 26.29 187.245 26.47C187.215 27.34 187.17 28.195 187.11 29.035C187.08 29.845 187.035 30.685 186.975 31.555C186.945 31.885 186.84 32.215 186.66 32.545C186.51 32.845 186.255 32.995 185.895 32.995C184.185 32.995 182.475 33.04 180.765 33.13C179.085 33.19 177.39 33.25 175.68 33.31C175.68 33.73 175.68 34.15 175.68 34.57C175.71 34.99 175.74 35.41 175.77 35.83C175.95 35.83 176.295 35.83 176.805 35.83C177.345 35.8 177.915 35.785 178.515 35.785C179.115 35.755 179.67 35.74 180.18 35.74C180.72 35.71 181.08 35.695 181.26 35.695C181.47 35.695 181.695 35.695 181.935 35.695C182.205 35.665 182.445 35.665 182.655 35.695C182.895 35.725 183.075 35.8 183.195 35.92C183.345 36.01 183.42 36.16 183.42 36.37C183.42 36.52 183.42 36.85 183.42 37.36C183.42 37.84 183.405 38.365 183.375 38.935C183.375 39.505 183.36 40.045 183.33 40.555C183.33 41.035 183.33 41.35 183.33 41.5C183.33 41.98 183.285 42.46 183.195 42.94C183.135 43.42 182.865 43.66 182.385 43.66C181.245 43.66 180.12 43.66 179.01 43.66C177.9 43.63 176.79 43.66 175.68 43.75C175.65 43.9 175.635 44.14 175.635 44.47C175.635 44.8 175.635 45.16 175.635 45.55C175.665 45.94 175.695 46.315 175.725 46.675C175.755 47.005 175.77 47.245 175.77 47.395C177.39 47.245 179.01 47.185 180.63 47.215C182.25 47.215 183.87 47.2 185.49 47.17C185.94 47.17 186.195 47.395 186.255 47.845C186.345 48.295 186.375 48.745 186.345 49.195C186.345 49.345 186.33 49.66 186.3 50.14C186.27 50.59 186.24 51.085 186.21 51.625C186.18 52.165 186.15 52.675 186.12 53.155C186.09 53.605 186.075 53.905 186.075 54.055C186.045 54.385 185.925 54.685 185.715 54.955C185.505 55.195 185.235 55.375 184.905 55.495ZM198.035 59.14C197.675 59.14 197.21 59.14 196.64 59.14C196.1 59.14 195.545 59.11 194.975 59.05C194.435 58.99 193.91 58.885 193.4 58.735C192.92 58.585 192.575 58.375 192.365 58.105C192.035 57.685 191.855 57.205 191.825 56.665C191.825 56.125 191.81 55.6 191.78 55.09C191.6 51.97 191.45 48.865 191.33 45.775C191.24 42.685 191.15 39.565 191.06 36.415C191.06 36.055 191.03 35.425 190.97 34.525C190.94 33.625 190.91 32.665 190.88 31.645C190.88 30.625 190.88 29.665 190.88 28.765C190.88 27.865 190.925 27.235 191.015 26.875C191.075 26.545 191.24 26.275 191.51 26.065C191.78 25.825 192.08 25.63 192.41 25.48C193.55 24.97 194.735 24.595 195.965 24.355C197.225 24.115 198.485 23.905 199.745 23.725C201.455 23.485 203.195 23.365 204.965 23.365C206.735 23.335 208.46 23.545 210.14 23.995C211.22 24.295 212.27 24.715 213.29 25.255C214.31 25.795 215.21 26.455 215.99 27.235C216.77 28.015 217.415 28.915 217.925 29.935C218.435 30.925 218.78 31.96 218.96 33.04C219.14 34.06 219.155 35.095 219.005 36.145C218.855 37.195 218.555 38.17 218.105 39.07C217.535 40.21 216.725 41.23 215.675 42.13C214.655 43 213.545 43.66 212.345 44.11C212.825 44.89 213.365 45.64 213.965 46.36C214.565 47.08 215.18 47.785 215.81 48.475C216.44 49.135 217.07 49.81 217.7 50.5C218.33 51.16 218.945 51.85 219.545 52.57C219.605 52.63 219.65 52.675 219.68 52.705C219.71 52.705 219.74 52.735 219.77 52.795C219.83 53.005 219.74 53.275 219.5 53.605C219.26 53.905 219.065 54.145 218.915 54.325C218.075 55.285 217.1 56.08 215.99 56.71C214.91 57.34 213.74 57.775 212.48 58.015C212.15 58.075 211.805 58.105 211.445 58.105C211.115 58.135 210.785 58.09 210.455 57.97C210.215 57.88 209.99 57.745 209.78 57.565C209.6 57.415 209.435 57.235 209.285 57.025C209.135 56.815 208.895 56.47 208.565 55.99C208.265 55.54 207.92 55.015 207.53 54.415C207.14 53.815 206.735 53.185 206.315 52.525C205.895 51.835 205.49 51.19 205.1 50.59C204.74 49.96 204.41 49.405 204.11 48.925C203.84 48.445 203.645 48.085 203.525 47.845C203.585 49.165 203.645 50.47 203.705 51.76C203.765 53.05 203.87 54.34 204.02 55.63C204.05 55.9 204.095 56.17 204.155 56.44C204.215 56.71 204.185 56.965 204.065 57.205C203.885 57.625 203.555 57.955 203.075 58.195C202.625 58.465 202.1 58.66 201.5 58.78C200.9 58.93 200.285 59.02 199.655 59.05C199.025 59.11 198.485 59.14 198.035 59.14ZM202.085 38.62C202.655 38.62 203.225 38.635 203.795 38.665C204.365 38.695 204.935 38.65 205.505 38.53C205.985 38.44 206.45 38.275 206.9 38.035C207.35 37.795 207.695 37.465 207.935 37.045C208.265 36.445 208.43 35.755 208.43 34.975C208.43 34.195 208.28 33.49 207.98 32.86C207.77 32.41 207.44 32.095 206.99 31.915C206.54 31.705 206.03 31.585 205.46 31.555C204.89 31.495 204.305 31.51 203.705 31.6C203.105 31.66 202.565 31.735 202.085 31.825C201.995 34.105 201.995 36.37 202.085 38.62ZM230.291 59.14C229.931 59.14 229.466 59.14 228.896 59.14C228.356 59.14 227.801 59.11 227.231 59.05C226.691 58.99 226.166 58.885 225.656 58.735C225.176 58.585 224.831 58.375 224.621 58.105C224.291 57.685 224.111 57.205 224.081 56.665C224.081 56.125 224.066 55.6 224.036 55.09C223.856 51.97 223.706 48.865 223.586 45.775C223.496 42.685 223.406 39.565 223.316 36.415C223.316 36.055 223.286 35.425 223.226 34.525C223.196 33.625 223.166 32.665 223.136 31.645C223.136 30.625 223.136 29.665 223.136 28.765C223.136 27.865 223.181 27.235 223.271 26.875C223.331 26.545 223.496 26.275 223.766 26.065C224.036 25.825 224.336 25.63 224.666 25.48C225.806 24.97 226.991 24.595 228.221 24.355C229.481 24.115 230.741 23.905 232.001 23.725C233.711 23.485 235.451 23.365 237.221 23.365C238.991 23.335 240.716 23.545 242.396 23.995C243.476 24.295 244.526 24.715 245.546 25.255C246.566 25.795 247.466 26.455 248.246 27.235C249.026 28.015 249.671 28.915 250.181 29.935C250.691 30.925 251.036 31.96 251.216 33.04C251.396 34.06 251.411 35.095 251.261 36.145C251.111 37.195 250.811 38.17 250.361 39.07C249.791 40.21 248.981 41.23 247.931 42.13C246.911 43 245.801 43.66 244.601 44.11C245.081 44.89 245.621 45.64 246.221 46.36C246.821 47.08 247.436 47.785 248.066 48.475C248.696 49.135 249.326 49.81 249.956 50.5C250.586 51.16 251.201 51.85 251.801 52.57C251.861 52.63 251.906 52.675 251.936 52.705C251.966 52.705 251.996 52.735 252.026 52.795C252.086 53.005 251.996 53.275 251.756 53.605C251.516 53.905 251.321 54.145 251.171 54.325C250.331 55.285 249.356 56.08 248.246 56.71C247.166 57.34 245.996 57.775 244.736 58.015C244.406 58.075 244.061 58.105 243.701 58.105C243.371 58.135 243.041 58.09 242.711 57.97C242.471 57.88 242.246 57.745 242.036 57.565C241.856 57.415 241.691 57.235 241.541 57.025C241.391 56.815 241.151 56.47 240.821 55.99C240.521 55.54 240.176 55.015 239.786 54.415C239.396 53.815 238.991 53.185 238.571 52.525C238.151 51.835 237.746 51.19 237.356 50.59C236.996 49.96 236.666 49.405 236.366 48.925C236.096 48.445 235.901 48.085 235.781 47.845C235.841 49.165 235.901 50.47 235.961 51.76C236.021 53.05 236.126 54.34 236.276 55.63C236.306 55.9 236.351 56.17 236.411 56.44C236.471 56.71 236.441 56.965 236.321 57.205C236.141 57.625 235.811 57.955 235.331 58.195C234.881 58.465 234.356 58.66 233.756 58.78C233.156 58.93 232.541 59.02 231.911 59.05C231.281 59.11 230.741 59.14 230.291 59.14ZM234.341 38.62C234.911 38.62 235.481 38.635 236.051 38.665C236.621 38.695 237.191 38.65 237.761 38.53C238.241 38.44 238.706 38.275 239.156 38.035C239.606 37.795 239.951 37.465 240.191 37.045C240.521 36.445 240.686 35.755 240.686 34.975C240.686 34.195 240.536 33.49 240.236 32.86C240.026 32.41 239.696 32.095 239.246 31.915C238.796 31.705 238.286 31.585 237.716 31.555C237.146 31.495 236.561 31.51 235.961 31.6C235.361 31.66 234.821 31.735 234.341 31.825C234.251 34.105 234.251 36.37 234.341 38.62ZM279.467 49.825C278.387 51.025 277.157 52.015 275.777 52.795C274.397 53.575 272.942 54.13 271.412 54.46C269.882 54.76 268.322 54.835 266.732 54.685C265.172 54.505 263.672 54.07 262.232 53.38C260.972 52.78 259.787 51.985 258.677 50.995C257.597 50.005 256.757 48.88 256.157 47.62C255.377 46.03 254.912 44.335 254.762 42.535C254.642 40.705 254.642 38.905 254.762 37.135C254.882 35.305 255.257 33.505 255.887 31.735C256.517 29.965 257.342 28.315 258.362 26.785C258.962 25.915 259.622 25.06 260.342 24.22C261.062 23.38 261.902 22.69 262.862 22.15C263.732 21.64 264.662 21.25 265.652 20.98C266.642 20.71 267.632 20.545 268.622 20.485C270.512 20.365 272.417 20.59 274.337 21.16C276.287 21.7 278.027 22.54 279.557 23.68C280.307 24.28 280.982 24.94 281.582 25.66C282.212 26.38 282.737 27.16 283.157 28C283.757 29.32 284.102 30.73 284.192 32.23C284.312 34.24 284.267 36.265 284.057 38.305C283.847 40.345 283.397 42.31 282.707 44.2C282.317 45.22 281.852 46.21 281.312 47.17C280.772 48.13 280.157 49.015 279.467 49.825ZM265.967 41.095C266.297 41.725 266.732 42.16 267.272 42.4C267.842 42.61 268.427 42.685 269.027 42.625C269.657 42.535 270.272 42.31 270.872 41.95C271.472 41.59 271.982 41.125 272.402 40.555C272.792 40.015 273.152 39.37 273.482 38.62C273.812 37.84 274.052 37.045 274.202 36.235C274.382 35.395 274.442 34.585 274.382 33.805C274.322 33.025 274.097 32.35 273.707 31.78C273.137 30.97 272.357 30.535 271.367 30.475C270.377 30.385 269.477 30.64 268.667 31.24C268.247 31.57 267.872 31.945 267.542 32.365C267.242 32.785 266.972 33.235 266.732 33.715C266.312 34.555 265.982 35.425 265.742 36.325C265.502 37.195 265.412 38.095 265.472 39.025C265.472 39.745 265.637 40.435 265.967 41.095ZM295.022 59.14C294.662 59.14 294.197 59.14 293.627 59.14C293.087 59.14 292.532 59.11 291.962 59.05C291.422 58.99 290.897 58.885 290.387 58.735C289.907 58.585 289.562 58.375 289.352 58.105C289.022 57.685 288.842 57.205 288.812 56.665C288.812 56.125 288.797 55.6 288.767 55.09C288.587 51.97 288.437 48.865 288.317 45.775C288.227 42.685 288.137 39.565 288.047 36.415C288.047 36.055 288.017 35.425 287.957 34.525C287.927 33.625 287.897 32.665 287.867 31.645C287.867 30.625 287.867 29.665 287.867 28.765C287.867 27.865 287.912 27.235 288.002 26.875C288.062 26.545 288.227 26.275 288.497 26.065C288.767 25.825 289.067 25.63 289.397 25.48C290.537 24.97 291.722 24.595 292.952 24.355C294.212 24.115 295.472 23.905 296.732 23.725C298.442 23.485 300.182 23.365 301.952 23.365C303.722 23.335 305.447 23.545 307.127 23.995C308.207 24.295 309.257 24.715 310.277 25.255C311.297 25.795 312.197 26.455 312.977 27.235C313.757 28.015 314.402 28.915 314.912 29.935C315.422 30.925 315.767 31.96 315.947 33.04C316.127 34.06 316.142 35.095 315.992 36.145C315.842 37.195 315.542 38.17 315.092 39.07C314.522 40.21 313.712 41.23 312.662 42.13C311.642 43 310.532 43.66 309.332 44.11C309.812 44.89 310.352 45.64 310.952 46.36C311.552 47.08 312.167 47.785 312.797 48.475C313.427 49.135 314.057 49.81 314.687 50.5C315.317 51.16 315.932 51.85 316.532 52.57C316.592 52.63 316.637 52.675 316.667 52.705C316.697 52.705 316.727 52.735 316.757 52.795C316.817 53.005 316.727 53.275 316.487 53.605C316.247 53.905 316.052 54.145 315.902 54.325C315.062 55.285 314.087 56.08 312.977 56.71C311.897 57.34 310.727 57.775 309.467 58.015C309.137 58.075 308.792 58.105 308.432 58.105C308.102 58.135 307.772 58.09 307.442 57.97C307.202 57.88 306.977 57.745 306.767 57.565C306.587 57.415 306.422 57.235 306.272 57.025C306.122 56.815 305.882 56.47 305.552 55.99C305.252 55.54 304.907 55.015 304.517 54.415C304.127 53.815 303.722 53.185 303.302 52.525C302.882 51.835 302.477 51.19 302.087 50.59C301.727 49.96 301.397 49.405 301.097 48.925C300.827 48.445 300.632 48.085 300.512 47.845C300.572 49.165 300.632 50.47 300.692 51.76C300.752 53.05 300.857 54.34 301.007 55.63C301.037 55.9 301.082 56.17 301.142 56.44C301.202 56.71 301.172 56.965 301.052 57.205C300.872 57.625 300.542 57.955 300.062 58.195C299.612 58.465 299.087 58.66 298.487 58.78C297.887 58.93 297.272 59.02 296.642 59.05C296.012 59.11 295.472 59.14 295.022 59.14ZM299.072 38.62C299.642 38.62 300.212 38.635 300.782 38.665C301.352 38.695 301.922 38.65 302.492 38.53C302.972 38.44 303.437 38.275 303.887 38.035C304.337 37.795 304.682 37.465 304.922 37.045C305.252 36.445 305.417 35.755 305.417 34.975C305.417 34.195 305.267 33.49 304.967 32.86C304.757 32.41 304.427 32.095 303.977 31.915C303.527 31.705 303.017 31.585 302.447 31.555C301.877 31.495 301.292 31.51 300.692 31.6C300.092 31.66 299.552 31.735 299.072 31.825C298.982 34.105 298.982 36.37 299.072 38.62Z" fill="black"/>
<path d="M45.15 58.84C44.8233 59.0267 44.31 59.1667 43.61 59.26C42.91 59.3533 42.1633 59.4233 41.37 59.47C40.6233 59.5167 39.8767 59.5167 39.13 59.47C38.3833 59.47 37.8233 59.47 37.45 59.47C36.1433 59.47 34.8367 59.4467 33.53 59.4C32.2233 59.3533 30.9167 59.2833 29.61 59.19C29.19 59.1433 28.7467 59.0033 28.28 58.77C27.86 58.5367 27.6267 58.21 27.58 57.79C27.4867 57.23 27.4167 56.2267 27.37 54.78C27.3233 53.2867 27.3 51.7233 27.3 50.09C27.3 48.41 27.3 46.8467 27.3 45.4C27.3467 43.9067 27.37 42.88 27.37 42.32C23.73 42.74 20.09 43.0667 16.45 43.3C12.81 43.5333 9.17 43.4633 5.53 43.09C5.01667 43.0433 4.64333 42.7633 4.41 42.25C4.22333 41.7367 4.13 41.2233 4.13 40.71C3.80333 35.25 3.61667 29.8367 3.57 24.47C3.52333 19.0567 3.5 13.6433 3.5 8.23C3.5 7.85666 3.52333 7.46 3.57 7.04C3.66333 6.57333 3.85 6.22333 4.13 5.99C4.31667 5.75666 4.55 5.64 4.83 5.64C5.11 5.59333 5.39 5.57 5.67 5.57C6.13667 5.57 7.04667 5.57 8.4 5.57C9.8 5.57 11.27 5.57 12.81 5.57C14.3967 5.52333 15.8667 5.5 17.22 5.5C18.62 5.45333 19.5533 5.43 20.02 5.43C20.5333 5.38333 21.0233 5.47666 21.49 5.71C22.0033 5.94333 22.2367 6.31666 22.19 6.83C22.0967 10.7967 21.9567 14.74 21.77 18.66C21.63 22.58 21.63 26.5233 21.77 30.49C22.7033 30.3967 23.66 30.35 24.64 30.35C25.62 30.35 26.6 30.3033 27.58 30.21C27.58 29.79 27.6033 28.9733 27.65 27.76C27.6967 26.5 27.7433 25.17 27.79 23.77C27.8833 22.37 27.9533 21.0633 28 19.85C28.0467 18.59 28.0933 17.75 28.14 17.33C28.14 17.0033 28.1867 16.6767 28.28 16.35C28.3733 16.0233 28.5367 15.7433 28.77 15.51C28.9567 15.2767 29.19 15.1367 29.47 15.09C29.75 15.0433 30.03 15.02 30.31 15.02C30.59 15.02 31.1967 15.02 32.13 15.02C33.0633 14.9733 34.0433 14.9267 35.07 14.88C36.1433 14.8333 37.1467 14.7867 38.08 14.74C39.0133 14.6933 39.6433 14.67 39.97 14.67C40.6233 14.6233 41.2767 14.6233 41.93 14.67C42.63 14.7167 43.2367 14.9267 43.75 15.3C44.1233 15.5333 44.3567 15.8833 44.45 16.35C44.5433 16.77 44.6367 17.1667 44.73 17.54C44.73 17.7733 44.73 18.24 44.73 18.94C44.7767 19.5933 44.8233 20.3167 44.87 21.11C44.9167 21.9033 44.94 22.65 44.94 23.35C44.9867 24.0033 45.01 24.4467 45.01 24.68C45.2433 29.6267 45.4533 34.5733 45.64 39.52C45.8267 44.42 45.9667 49.3667 46.06 54.36C46.06 54.5 46.06 54.7333 46.06 55.06C46.06 55.3867 46.06 55.7367 46.06 56.11C46.06 56.4367 46.0367 56.7633 45.99 57.09C45.99 57.4167 45.99 57.65 45.99 57.79C45.85 58.2567 45.57 58.6067 45.15 58.84ZM85.9655 55.83C83.7255 56.81 81.4155 57.3933 79.0355 57.58C76.6555 57.7667 74.3221 57.6033 72.0355 57.09C69.7488 56.5767 67.5555 55.7367 65.4555 54.57C63.3555 53.3567 61.5121 51.84 59.9255 50.02C58.8055 48.76 57.8255 47.3833 56.9855 45.89C56.1455 44.3967 55.4455 42.8333 54.8855 41.2C53.8121 38.26 53.0888 35.2033 52.7155 32.03C52.3888 28.8567 52.3188 25.7067 52.5055 22.58C52.5988 21.1333 52.8555 19.71 53.2755 18.31C53.6955 16.91 54.3021 15.6033 55.0955 14.39C56.0755 12.7567 57.2888 11.3333 58.7355 10.12C60.2288 8.86 61.8155 7.81 63.4955 6.97C65.5488 5.99 67.6955 5.26666 69.9355 4.8C72.2221 4.33333 74.4855 4.17 76.7255 4.31C78.2188 4.40333 79.6655 4.63666 81.0655 5.01C82.5121 5.38333 83.8888 5.92 85.1955 6.62C86.7355 7.41333 88.1121 8.48667 89.3255 9.84C90.5388 11.1467 91.6355 12.5233 92.6155 13.97C94.2488 16.3967 95.5555 19.01 96.5355 21.81C97.5621 24.61 98.1455 27.4567 98.2855 30.35C98.4721 33.15 98.4488 35.9733 98.2155 38.82C97.9821 41.62 97.2588 44.2567 96.0455 46.73C95.0188 48.7833 93.5955 50.58 91.7755 52.12C90.0021 53.66 88.0655 54.8967 85.9655 55.83ZM70.8455 35.53C71.3121 36.1833 71.8721 36.7667 72.5255 37.28C73.2255 37.7933 73.9488 38.19 74.6955 38.47C75.4888 38.7033 76.2588 38.82 77.0055 38.82C77.7988 38.82 78.5455 38.61 79.2455 38.19C79.8055 37.8167 80.2721 37.3033 80.6455 36.65C81.0188 35.9967 81.2988 35.3433 81.4855 34.69C81.7188 33.6633 81.7421 32.4967 81.5555 31.19C81.4155 29.8833 81.1121 28.5767 80.6455 27.27C80.2255 25.9633 79.6655 24.75 78.9655 23.63C78.2655 22.51 77.4955 21.6467 76.6555 21.04C75.4888 20.2 74.1588 19.8033 72.6655 19.85C71.1721 19.8967 69.9588 20.48 69.0255 21.6C68.6055 22.1133 68.2788 22.72 68.0455 23.42C67.8588 24.12 67.7655 24.82 67.7655 25.52C67.7188 27.2933 67.9521 29.0667 68.4655 30.84C69.0255 32.5667 69.8188 34.13 70.8455 35.53ZM146.664 58.84C146.337 59.0267 145.824 59.1667 145.124 59.26C144.424 59.3533 143.677 59.4233 142.884 59.47C142.137 59.5167 141.39 59.5167 140.644 59.47C139.897 59.47 139.337 59.47 138.964 59.47C137.657 59.47 136.35 59.4467 135.044 59.4C133.737 59.3533 132.43 59.2833 131.124 59.19C130.704 59.1433 130.26 59.0033 129.794 58.77C129.374 58.5367 129.14 58.21 129.094 57.79C129 57.23 128.93 56.2267 128.884 54.78C128.837 53.2867 128.814 51.7233 128.814 50.09C128.814 48.41 128.814 46.8467 128.814 45.4C128.86 43.9067 128.884 42.88 128.884 42.32C125.244 42.74 121.604 43.0667 117.964 43.3C114.324 43.5333 110.684 43.4633 107.044 43.09C106.53 43.0433 106.157 42.7633 105.924 42.25C105.737 41.7367 105.644 41.2233 105.644 40.71C105.317 35.25 105.13 29.8367 105.084 24.47C105.037 19.0567 105.014 13.6433 105.014 8.23C105.014 7.85666 105.037 7.46 105.084 7.04C105.177 6.57333 105.364 6.22333 105.644 5.99C105.83 5.75666 106.064 5.64 106.344 5.64C106.624 5.59333 106.904 5.57 107.184 5.57C107.65 5.57 108.56 5.57 109.914 5.57C111.314 5.57 112.784 5.57 114.324 5.57C115.91 5.52333 117.38 5.5 118.734 5.5C120.134 5.45333 121.067 5.43 121.534 5.43C122.047 5.38333 122.537 5.47666 123.004 5.71C123.517 5.94333 123.75 6.31666 123.704 6.83C123.61 10.7967 123.47 14.74 123.284 18.66C123.144 22.58 123.144 26.5233 123.284 30.49C124.217 30.3967 125.174 30.35 126.154 30.35C127.134 30.35 128.114 30.3033 129.094 30.21C129.094 29.79 129.117 28.9733 129.164 27.76C129.21 26.5 129.257 25.17 129.304 23.77C129.397 22.37 129.467 21.0633 129.514 19.85C129.56 18.59 129.607 17.75 129.654 17.33C129.654 17.0033 129.7 16.6767 129.794 16.35C129.887 16.0233 130.05 15.7433 130.284 15.51C130.47 15.2767 130.704 15.1367 130.984 15.09C131.264 15.0433 131.544 15.02 131.824 15.02C132.104 15.02 132.71 15.02 133.644 15.02C134.577 14.9733 135.557 14.9267 136.584 14.88C137.657 14.8333 138.66 14.7867 139.594 14.74C140.527 14.6933 141.157 14.67 141.484 14.67C142.137 14.6233 142.79 14.6233 143.444 14.67C144.144 14.7167 144.75 14.9267 145.264 15.3C145.637 15.5333 145.87 15.8833 145.964 16.35C146.057 16.77 146.15 17.1667 146.244 17.54C146.244 17.7733 146.244 18.24 146.244 18.94C146.29 19.5933 146.337 20.3167 146.384 21.11C146.43 21.9033 146.454 22.65 146.454 23.35C146.5 24.0033 146.524 24.4467 146.524 24.68C146.757 29.6267 146.967 34.5733 147.154 39.52C147.34 44.42 147.48 49.3667 147.574 54.36C147.574 54.5 147.574 54.7333 147.574 55.06C147.574 55.3867 147.574 55.7367 147.574 56.11C147.574 56.4367 147.55 56.7633 147.504 57.09C147.504 57.4167 147.504 57.65 147.504 57.79C147.364 58.2567 147.084 58.6067 146.664 58.84Z" fill="#22C55E"/>
</svg>
