<svg width="241" height="54" viewBox="0 0 241 54" fill="none" xmlns="http://www.w3.org/2000/svg">
<path d="M136.815 49.385C136.512 49.4783 136.045 49.5483 135.415 49.595C134.785 49.665 134.073 49.7 133.28 49.7C132.51 49.7233 131.693 49.7233 130.83 49.7C129.967 49.7 129.138 49.6883 128.345 49.665C127.552 49.6417 126.828 49.6183 126.175 49.595C125.545 49.5717 125.067 49.5483 124.74 49.525C124.437 49.525 124.133 49.525 123.83 49.525C123.55 49.5483 123.258 49.5367 122.955 49.49C122.815 49.4667 122.675 49.4317 122.535 49.385C122.395 49.3617 122.278 49.2917 122.185 49.175C122.045 49.035 121.975 48.86 121.975 48.65C121.928 48.2067 121.87 47.4483 121.8 46.375C121.73 45.2783 121.648 44.0417 121.555 42.665C121.462 41.265 121.357 39.795 121.24 38.255C121.147 36.715 121.042 35.2567 120.925 33.88C120.832 32.48 120.738 31.2433 120.645 30.17C120.552 29.0967 120.47 28.3383 120.4 27.895C120.353 27.6383 120.318 27.3467 120.295 27.02C120.295 26.6933 120.412 26.4717 120.645 26.355C121.182 26.075 121.742 25.9 122.325 25.83C122.932 25.76 123.527 25.6783 124.11 25.585C126.373 25.3283 128.625 25.1417 130.865 25.025C133.128 24.885 135.392 24.7683 137.655 24.675C137.772 24.675 137.877 24.6867 137.97 24.71C138.063 24.71 138.157 24.7333 138.25 24.78C138.367 24.85 138.448 24.9667 138.495 25.13C138.565 25.2933 138.6 25.48 138.6 25.69C138.623 25.9 138.635 26.11 138.635 26.32C138.635 26.5067 138.635 26.67 138.635 26.81C138.612 27.4867 138.577 28.1517 138.53 28.805C138.507 29.435 138.472 30.0883 138.425 30.765C138.402 31.0217 138.32 31.2783 138.18 31.535C138.063 31.7683 137.865 31.885 137.585 31.885C136.255 31.885 134.925 31.92 133.595 31.99C132.288 32.0367 130.97 32.0833 129.64 32.13C129.64 32.4567 129.64 32.7833 129.64 33.11C129.663 33.4367 129.687 33.7633 129.71 34.09C129.85 34.09 130.118 34.09 130.515 34.09C130.935 34.0667 131.378 34.055 131.845 34.055C132.312 34.0317 132.743 34.02 133.14 34.02C133.56 33.9967 133.84 33.985 133.98 33.985C134.143 33.985 134.318 33.985 134.505 33.985C134.715 33.9617 134.902 33.9617 135.065 33.985C135.252 34.0083 135.392 34.0667 135.485 34.16C135.602 34.23 135.66 34.3467 135.66 34.51C135.66 34.6267 135.66 34.8833 135.66 35.28C135.66 35.6533 135.648 36.0617 135.625 36.505C135.625 36.9483 135.613 37.3683 135.59 37.765C135.59 38.1383 135.59 38.3833 135.59 38.5C135.59 38.8733 135.555 39.2467 135.485 39.62C135.438 39.9933 135.228 40.18 134.855 40.18C133.968 40.18 133.093 40.18 132.23 40.18C131.367 40.1567 130.503 40.18 129.64 40.25C129.617 40.3667 129.605 40.5533 129.605 40.81C129.605 41.0667 129.605 41.3467 129.605 41.65C129.628 41.9533 129.652 42.245 129.675 42.525C129.698 42.7817 129.71 42.9683 129.71 43.085C130.97 42.9683 132.23 42.9217 133.49 42.945C134.75 42.945 136.01 42.9333 137.27 42.91C137.62 42.91 137.818 43.085 137.865 43.435C137.935 43.785 137.958 44.135 137.935 44.485C137.935 44.6017 137.923 44.8467 137.9 45.22C137.877 45.57 137.853 45.955 137.83 46.375C137.807 46.795 137.783 47.1917 137.76 47.565C137.737 47.915 137.725 48.1483 137.725 48.265C137.702 48.5217 137.608 48.755 137.445 48.965C137.282 49.1517 137.072 49.2917 136.815 49.385ZM147.027 52.22C146.747 52.22 146.385 52.22 145.942 52.22C145.522 52.22 145.09 52.1967 144.647 52.15C144.227 52.1033 143.819 52.0217 143.422 51.905C143.049 51.7883 142.78 51.625 142.617 51.415C142.36 51.0883 142.22 50.715 142.197 50.295C142.197 49.875 142.185 49.4667 142.162 49.07C142.022 46.6433 141.905 44.2283 141.812 41.825C141.742 39.4217 141.672 36.995 141.602 34.545C141.602 34.265 141.579 33.775 141.532 33.075C141.509 32.375 141.485 31.6283 141.462 30.835C141.462 30.0417 141.462 29.295 141.462 28.595C141.462 27.895 141.497 27.405 141.567 27.125C141.614 26.8683 141.742 26.6583 141.952 26.495C142.162 26.3083 142.395 26.1567 142.652 26.04C143.539 25.6433 144.46 25.3517 145.417 25.165C146.397 24.9783 147.377 24.815 148.357 24.675C149.687 24.4883 151.04 24.395 152.417 24.395C153.794 24.3717 155.135 24.535 156.442 24.885C157.282 25.1183 158.099 25.445 158.892 25.865C159.685 26.285 160.385 26.7983 160.992 27.405C161.599 28.0117 162.1 28.7117 162.497 29.505C162.894 30.275 163.162 31.08 163.302 31.92C163.442 32.7133 163.454 33.5183 163.337 34.335C163.22 35.1517 162.987 35.91 162.637 36.61C162.194 37.4967 161.564 38.29 160.747 38.99C159.954 39.6667 159.09 40.18 158.157 40.53C158.53 41.1367 158.95 41.72 159.417 42.28C159.884 42.84 160.362 43.3883 160.852 43.925C161.342 44.4383 161.832 44.9633 162.322 45.5C162.812 46.0133 163.29 46.55 163.757 47.11C163.804 47.1567 163.839 47.1917 163.862 47.215C163.885 47.215 163.909 47.2383 163.932 47.285C163.979 47.4483 163.909 47.6583 163.722 47.915C163.535 48.1483 163.384 48.335 163.267 48.475C162.614 49.2217 161.855 49.84 160.992 50.33C160.152 50.82 159.242 51.1583 158.262 51.345C158.005 51.3917 157.737 51.415 157.457 51.415C157.2 51.4383 156.944 51.4033 156.687 51.31C156.5 51.24 156.325 51.135 156.162 50.995C156.022 50.8783 155.894 50.7383 155.777 50.575C155.66 50.4117 155.474 50.1433 155.217 49.77C154.984 49.42 154.715 49.0117 154.412 48.545C154.109 48.0783 153.794 47.5883 153.467 47.075C153.14 46.5383 152.825 46.0367 152.522 45.57C152.242 45.08 151.985 44.6483 151.752 44.275C151.542 43.9017 151.39 43.6217 151.297 43.435C151.344 44.4617 151.39 45.4767 151.437 46.48C151.484 47.4833 151.565 48.4867 151.682 49.49C151.705 49.7 151.74 49.91 151.787 50.12C151.834 50.33 151.81 50.5283 151.717 50.715C151.577 51.0417 151.32 51.2983 150.947 51.485C150.597 51.695 150.189 51.8467 149.722 51.94C149.255 52.0567 148.777 52.1267 148.287 52.15C147.797 52.1967 147.377 52.22 147.027 52.22ZM150.177 36.26C150.62 36.26 151.064 36.2717 151.507 36.295C151.95 36.3183 152.394 36.2833 152.837 36.19C153.21 36.12 153.572 35.9917 153.922 35.805C154.272 35.6183 154.54 35.3617 154.727 35.035C154.984 34.5683 155.112 34.0317 155.112 33.425C155.112 32.8183 154.995 32.27 154.762 31.78C154.599 31.43 154.342 31.185 153.992 31.045C153.642 30.8817 153.245 30.7883 152.802 30.765C152.359 30.7183 151.904 30.73 151.437 30.8C150.97 30.8467 150.55 30.905 150.177 30.975C150.107 32.7483 150.107 34.51 150.177 36.26ZM172.115 52.22C171.835 52.22 171.473 52.22 171.03 52.22C170.61 52.22 170.178 52.1967 169.735 52.15C169.315 52.1033 168.907 52.0217 168.51 51.905C168.137 51.7883 167.868 51.625 167.705 51.415C167.448 51.0883 167.308 50.715 167.285 50.295C167.285 49.875 167.273 49.4667 167.25 49.07C167.11 46.6433 166.993 44.2283 166.9 41.825C166.83 39.4217 166.76 36.995 166.69 34.545C166.69 34.265 166.667 33.775 166.62 33.075C166.597 32.375 166.573 31.6283 166.55 30.835C166.55 30.0417 166.55 29.295 166.55 28.595C166.55 27.895 166.585 27.405 166.655 27.125C166.702 26.8683 166.83 26.6583 167.04 26.495C167.25 26.3083 167.483 26.1567 167.74 26.04C168.627 25.6433 169.548 25.3517 170.505 25.165C171.485 24.9783 172.465 24.815 173.445 24.675C174.775 24.4883 176.128 24.395 177.505 24.395C178.882 24.3717 180.223 24.535 181.53 24.885C182.37 25.1183 183.187 25.445 183.98 25.865C184.773 26.285 185.473 26.7983 186.08 27.405C186.687 28.0117 187.188 28.7117 187.585 29.505C187.982 30.275 188.25 31.08 188.39 31.92C188.53 32.7133 188.542 33.5183 188.425 34.335C188.308 35.1517 188.075 35.91 187.725 36.61C187.282 37.4967 186.652 38.29 185.835 38.99C185.042 39.6667 184.178 40.18 183.245 40.53C183.618 41.1367 184.038 41.72 184.505 42.28C184.972 42.84 185.45 43.3883 185.94 43.925C186.43 44.4383 186.92 44.9633 187.41 45.5C187.9 46.0133 188.378 46.55 188.845 47.11C188.892 47.1567 188.927 47.1917 188.95 47.215C188.973 47.215 188.997 47.2383 189.02 47.285C189.067 47.4483 188.997 47.6583 188.81 47.915C188.623 48.1483 188.472 48.335 188.355 48.475C187.702 49.2217 186.943 49.84 186.08 50.33C185.24 50.82 184.33 51.1583 183.35 51.345C183.093 51.3917 182.825 51.415 182.545 51.415C182.288 51.4383 182.032 51.4033 181.775 51.31C181.588 51.24 181.413 51.135 181.25 50.995C181.11 50.8783 180.982 50.7383 180.865 50.575C180.748 50.4117 180.562 50.1433 180.305 49.77C180.072 49.42 179.803 49.0117 179.5 48.545C179.197 48.0783 178.882 47.5883 178.555 47.075C178.228 46.5383 177.913 46.0367 177.61 45.57C177.33 45.08 177.073 44.6483 176.84 44.275C176.63 43.9017 176.478 43.6217 176.385 43.435C176.432 44.4617 176.478 45.4767 176.525 46.48C176.572 47.4833 176.653 48.4867 176.77 49.49C176.793 49.7 176.828 49.91 176.875 50.12C176.922 50.33 176.898 50.5283 176.805 50.715C176.665 51.0417 176.408 51.2983 176.035 51.485C175.685 51.695 175.277 51.8467 174.81 51.94C174.343 52.0567 173.865 52.1267 173.375 52.15C172.885 52.1967 172.465 52.22 172.115 52.22ZM175.265 36.26C175.708 36.26 176.152 36.2717 176.595 36.295C177.038 36.3183 177.482 36.2833 177.925 36.19C178.298 36.12 178.66 35.9917 179.01 35.805C179.36 35.6183 179.628 35.3617 179.815 35.035C180.072 34.5683 180.2 34.0317 180.2 33.425C180.2 32.8183 180.083 32.27 179.85 31.78C179.687 31.43 179.43 31.185 179.08 31.045C178.73 30.8817 178.333 30.7883 177.89 30.765C177.447 30.7183 176.992 30.73 176.525 30.8C176.058 30.8467 175.638 30.905 175.265 30.975C175.195 32.7483 175.195 34.51 175.265 36.26ZM210.363 44.975C209.523 45.9083 208.566 46.6783 207.493 47.285C206.42 47.8917 205.288 48.3233 204.098 48.58C202.908 48.8133 201.695 48.8717 200.458 48.755C199.245 48.615 198.078 48.2767 196.958 47.74C195.978 47.2733 195.056 46.655 194.193 45.885C193.353 45.115 192.7 44.24 192.233 43.26C191.626 42.0233 191.265 40.705 191.148 39.305C191.055 37.8817 191.055 36.4817 191.148 35.105C191.241 33.6817 191.533 32.2817 192.023 30.905C192.513 29.5283 193.155 28.245 193.948 27.055C194.415 26.3783 194.928 25.7133 195.488 25.06C196.048 24.4067 196.701 23.87 197.448 23.45C198.125 23.0533 198.848 22.75 199.618 22.54C200.388 22.33 201.158 22.2017 201.928 22.155C203.398 22.0617 204.88 22.2367 206.373 22.68C207.89 23.1 209.243 23.7533 210.433 24.64C211.016 25.1067 211.541 25.62 212.008 26.18C212.498 26.74 212.906 27.3467 213.233 28C213.7 29.0267 213.968 30.1233 214.038 31.29C214.131 32.8533 214.096 34.4283 213.933 36.015C213.77 37.6017 213.42 39.13 212.883 40.6C212.58 41.3933 212.218 42.1633 211.798 42.91C211.378 43.6567 210.9 44.345 210.363 44.975ZM199.863 38.185C200.12 38.675 200.458 39.0133 200.878 39.2C201.321 39.3633 201.776 39.4217 202.243 39.375C202.733 39.305 203.211 39.13 203.678 38.85C204.145 38.57 204.541 38.2083 204.868 37.765C205.171 37.345 205.451 36.8433 205.708 36.26C205.965 35.6533 206.151 35.035 206.268 34.405C206.408 33.7517 206.455 33.1217 206.408 32.515C206.361 31.9083 206.186 31.3833 205.883 30.94C205.44 30.31 204.833 29.9717 204.063 29.925C203.293 29.855 202.593 30.0533 201.963 30.52C201.636 30.7767 201.345 31.0683 201.088 31.395C200.855 31.7217 200.645 32.0717 200.458 32.445C200.131 33.0983 199.875 33.775 199.688 34.475C199.501 35.1517 199.431 35.8517 199.478 36.575C199.478 37.135 199.606 37.6717 199.863 38.185ZM222.462 52.22C222.182 52.22 221.82 52.22 221.377 52.22C220.957 52.22 220.525 52.1967 220.082 52.15C219.662 52.1033 219.253 52.0217 218.857 51.905C218.483 51.7883 218.215 51.625 218.052 51.415C217.795 51.0883 217.655 50.715 217.632 50.295C217.632 49.875 217.62 49.4667 217.597 49.07C217.457 46.6433 217.34 44.2283 217.247 41.825C217.177 39.4217 217.107 36.995 217.037 34.545C217.037 34.265 217.013 33.775 216.967 33.075C216.943 32.375 216.92 31.6283 216.897 30.835C216.897 30.0417 216.897 29.295 216.897 28.595C216.897 27.895 216.932 27.405 217.002 27.125C217.048 26.8683 217.177 26.6583 217.387 26.495C217.597 26.3083 217.83 26.1567 218.087 26.04C218.973 25.6433 219.895 25.3517 220.852 25.165C221.832 24.9783 222.812 24.815 223.792 24.675C225.122 24.4883 226.475 24.395 227.852 24.395C229.228 24.3717 230.57 24.535 231.877 24.885C232.717 25.1183 233.533 25.445 234.327 25.865C235.12 26.285 235.82 26.7983 236.427 27.405C237.033 28.0117 237.535 28.7117 237.932 29.505C238.328 30.275 238.597 31.08 238.737 31.92C238.877 32.7133 238.888 33.5183 238.772 34.335C238.655 35.1517 238.422 35.91 238.072 36.61C237.628 37.4967 236.998 38.29 236.182 38.99C235.388 39.6667 234.525 40.18 233.592 40.53C233.965 41.1367 234.385 41.72 234.852 42.28C235.318 42.84 235.797 43.3883 236.287 43.925C236.777 44.4383 237.267 44.9633 237.757 45.5C238.247 46.0133 238.725 46.55 239.192 47.11C239.238 47.1567 239.273 47.1917 239.297 47.215C239.32 47.215 239.343 47.2383 239.367 47.285C239.413 47.4483 239.343 47.6583 239.157 47.915C238.97 48.1483 238.818 48.335 238.702 48.475C238.048 49.2217 237.29 49.84 236.427 50.33C235.587 50.82 234.677 51.1583 233.697 51.345C233.44 51.3917 233.172 51.415 232.892 51.415C232.635 51.4383 232.378 51.4033 232.122 51.31C231.935 51.24 231.76 51.135 231.597 50.995C231.457 50.8783 231.328 50.7383 231.212 50.575C231.095 50.4117 230.908 50.1433 230.652 49.77C230.418 49.42 230.15 49.0117 229.847 48.545C229.543 48.0783 229.228 47.5883 228.902 47.075C228.575 46.5383 228.26 46.0367 227.957 45.57C227.677 45.08 227.42 44.6483 227.187 44.275C226.977 43.9017 226.825 43.6217 226.732 43.435C226.778 44.4617 226.825 45.4767 226.872 46.48C226.918 47.4833 227 48.4867 227.117 49.49C227.14 49.7 227.175 49.91 227.222 50.12C227.268 50.33 227.245 50.5283 227.152 50.715C227.012 51.0417 226.755 51.2983 226.382 51.485C226.032 51.695 225.623 51.8467 225.157 51.94C224.69 52.0567 224.212 52.1267 223.722 52.15C223.232 52.1967 222.812 52.22 222.462 52.22ZM225.612 36.26C226.055 36.26 226.498 36.2717 226.942 36.295C227.385 36.3183 227.828 36.2833 228.272 36.19C228.645 36.12 229.007 35.9917 229.357 35.805C229.707 35.6183 229.975 35.3617 230.162 35.035C230.418 34.5683 230.547 34.0317 230.547 33.425C230.547 32.8183 230.43 32.27 230.197 31.78C230.033 31.43 229.777 31.185 229.427 31.045C229.077 30.8817 228.68 30.7883 228.237 30.765C227.793 30.7183 227.338 30.73 226.872 30.8C226.405 30.8467 225.985 30.905 225.612 30.975C225.542 32.7483 225.542 34.51 225.612 36.26Z" fill="black"/>
<path d="M32.25 49.6C32.0167 49.7333 31.65 49.8333 31.15 49.9C30.65 49.9667 30.1167 50.0167 29.55 50.05C29.0167 50.0833 28.4833 50.0833 27.95 50.05C27.4167 50.05 27.0167 50.05 26.75 50.05C25.8167 50.05 24.8833 50.0333 23.95 50C23.0167 49.9667 22.0833 49.9167 21.15 49.85C20.85 49.8167 20.5333 49.7167 20.2 49.55C19.9 49.3833 19.7333 49.15 19.7 48.85C19.6333 48.45 19.5833 47.7333 19.55 46.7C19.5167 45.6333 19.5 44.5167 19.5 43.35C19.5 42.15 19.5 41.0333 19.5 40C19.5333 38.9333 19.55 38.2 19.55 37.8C16.95 38.1 14.35 38.3333 11.75 38.5C9.15 38.6667 6.55 38.6167 3.95 38.35C3.58333 38.3167 3.31667 38.1167 3.15 37.75C3.01667 37.3833 2.95 37.0167 2.95 36.65C2.71667 32.75 2.58333 28.8833 2.55 25.05C2.51667 21.1833 2.5 17.3167 2.5 13.45C2.5 13.1833 2.51667 12.9 2.55 12.6C2.61667 12.2667 2.75 12.0167 2.95 11.85C3.08333 11.6833 3.25 11.6 3.45 11.6C3.65 11.5667 3.85 11.55 4.05 11.55C4.38333 11.55 5.03333 11.55 6 11.55C7 11.55 8.05 11.55 9.15 11.55C10.2833 11.5167 11.3333 11.5 12.3 11.5C13.3 11.4667 13.9667 11.45 14.3 11.45C14.6667 11.4167 15.0167 11.4833 15.35 11.65C15.7167 11.8167 15.8833 12.0833 15.85 12.45C15.7833 15.2833 15.6833 18.1 15.55 20.9C15.45 23.7 15.45 26.5167 15.55 29.35C16.2167 29.2833 16.9 29.25 17.6 29.25C18.3 29.25 19 29.2167 19.7 29.15C19.7 28.85 19.7167 28.2667 19.75 27.4C19.7833 26.5 19.8167 25.55 19.85 24.55C19.9167 23.55 19.9667 22.6167 20 21.75C20.0333 20.85 20.0667 20.25 20.1 19.95C20.1 19.7167 20.1333 19.4833 20.2 19.25C20.2667 19.0167 20.3833 18.8167 20.55 18.65C20.6833 18.4833 20.85 18.3833 21.05 18.35C21.25 18.3167 21.45 18.3 21.65 18.3C21.85 18.3 22.2833 18.3 22.95 18.3C23.6167 18.2667 24.3167 18.2333 25.05 18.2C25.8167 18.1667 26.5333 18.1333 27.2 18.1C27.8667 18.0667 28.3167 18.05 28.55 18.05C29.0167 18.0167 29.4833 18.0167 29.95 18.05C30.45 18.0833 30.8833 18.2333 31.25 18.5C31.5167 18.6667 31.6833 18.9167 31.75 19.25C31.8167 19.55 31.8833 19.8333 31.95 20.1C31.95 20.2667 31.95 20.6 31.95 21.1C31.9833 21.5667 32.0167 22.0833 32.05 22.65C32.0833 23.2167 32.1 23.75 32.1 24.25C32.1333 24.7167 32.15 25.0333 32.15 25.2C32.3167 28.7333 32.4667 32.2667 32.6 35.8C32.7333 39.3 32.8333 42.8333 32.9 46.4C32.9 46.5 32.9 46.6667 32.9 46.9C32.9 47.1333 32.9 47.3833 32.9 47.65C32.9 47.8833 32.8833 48.1167 32.85 48.35C32.85 48.5833 32.85 48.75 32.85 48.85C32.75 49.1833 32.55 49.4333 32.25 49.6ZM61.4039 47.45C59.8039 48.15 58.1539 48.5667 56.4539 48.7C54.7539 48.8333 53.0872 48.7167 51.4539 48.35C49.8206 47.9833 48.2539 47.3833 46.7539 46.55C45.2539 45.6833 43.9372 44.6 42.8039 43.3C42.0039 42.4 41.3039 41.4167 40.7039 40.35C40.1039 39.2833 39.6039 38.1667 39.2039 37C38.4372 34.9 37.9206 32.7167 37.6539 30.45C37.4206 28.1833 37.3706 25.9333 37.5039 23.7C37.5706 22.6667 37.7539 21.65 38.0539 20.65C38.3539 19.65 38.7872 18.7167 39.3539 17.85C40.0539 16.6833 40.9206 15.6667 41.9539 14.8C43.0206 13.9 44.1539 13.15 45.3539 12.55C46.8206 11.85 48.3539 11.3333 49.9539 11C51.5872 10.6667 53.2039 10.55 54.8039 10.65C55.8706 10.7167 56.9039 10.8833 57.9039 11.15C58.9372 11.4167 59.9206 11.8 60.8539 12.3C61.9539 12.8667 62.9372 13.6333 63.8039 14.6C64.6706 15.5333 65.4539 16.5167 66.1539 17.55C67.3206 19.2833 68.2539 21.15 68.9539 23.15C69.6872 25.15 70.1039 27.1833 70.2039 29.25C70.3372 31.25 70.3206 33.2667 70.1539 35.3C69.9872 37.3 69.4706 39.1833 68.6039 40.95C67.8706 42.4167 66.8539 43.7 65.5539 44.8C64.2872 45.9 62.9039 46.7833 61.4039 47.45ZM50.6039 32.95C50.9372 33.4167 51.3372 33.8333 51.8039 34.2C52.3039 34.5667 52.8206 34.85 53.3539 35.05C53.9206 35.2167 54.4706 35.3 55.0039 35.3C55.5706 35.3 56.1039 35.15 56.6039 34.85C57.0039 34.5833 57.3372 34.2167 57.6039 33.75C57.8706 33.2833 58.0706 32.8167 58.2039 32.35C58.3706 31.6167 58.3872 30.7833 58.2539 29.85C58.1539 28.9167 57.9372 27.9833 57.6039 27.05C57.3039 26.1167 56.9039 25.25 56.4039 24.45C55.9039 23.65 55.3539 23.0333 54.7539 22.6C53.9206 22 52.9706 21.7167 51.9039 21.75C50.8372 21.7833 49.9706 22.2 49.3039 23C49.0039 23.3667 48.7706 23.8 48.6039 24.3C48.4706 24.8 48.4039 25.3 48.4039 25.8C48.3706 27.0667 48.5372 28.3333 48.9039 29.6C49.3039 30.8333 49.8706 31.95 50.6039 32.95ZM104.76 49.6C104.526 49.7333 104.16 49.8333 103.66 49.9C103.16 49.9667 102.626 50.0167 102.06 50.05C101.526 50.0833 100.993 50.0833 100.46 50.05C99.9264 50.05 99.5264 50.05 99.2598 50.05C98.3264 50.05 97.3931 50.0333 96.4598 50C95.5264 49.9667 94.5931 49.9167 93.6598 49.85C93.3598 49.8167 93.0431 49.7167 92.7098 49.55C92.4098 49.3833 92.2431 49.15 92.2098 48.85C92.1431 48.45 92.0931 47.7333 92.0598 46.7C92.0264 45.6333 92.0098 44.5167 92.0098 43.35C92.0098 42.15 92.0098 41.0333 92.0098 40C92.0431 38.9333 92.0598 38.2 92.0598 37.8C89.4598 38.1 86.8598 38.3333 84.2598 38.5C81.6598 38.6667 79.0598 38.6167 76.4598 38.35C76.0931 38.3167 75.8264 38.1167 75.6598 37.75C75.5264 37.3833 75.4598 37.0167 75.4598 36.65C75.2264 32.75 75.0931 28.8833 75.0598 25.05C75.0264 21.1833 75.0098 17.3167 75.0098 13.45C75.0098 13.1833 75.0264 12.9 75.0598 12.6C75.1264 12.2667 75.2598 12.0167 75.4598 11.85C75.5931 11.6833 75.7598 11.6 75.9598 11.6C76.1598 11.5667 76.3598 11.55 76.5598 11.55C76.8931 11.55 77.5431 11.55 78.5098 11.55C79.5098 11.55 80.5598 11.55 81.6598 11.55C82.7931 11.5167 83.8431 11.5 84.8098 11.5C85.8098 11.4667 86.4764 11.45 86.8098 11.45C87.1764 11.4167 87.5264 11.4833 87.8598 11.65C88.2264 11.8167 88.3931 12.0833 88.3598 12.45C88.2931 15.2833 88.1931 18.1 88.0598 20.9C87.9598 23.7 87.9598 26.5167 88.0598 29.35C88.7264 29.2833 89.4098 29.25 90.1098 29.25C90.8098 29.25 91.5098 29.2167 92.2098 29.15C92.2098 28.85 92.2264 28.2667 92.2598 27.4C92.2931 26.5 92.3264 25.55 92.3598 24.55C92.4264 23.55 92.4764 22.6167 92.5098 21.75C92.5431 20.85 92.5764 20.25 92.6098 19.95C92.6098 19.7167 92.6431 19.4833 92.7098 19.25C92.7764 19.0167 92.8931 18.8167 93.0598 18.65C93.1931 18.4833 93.3598 18.3833 93.5598 18.35C93.7598 18.3167 93.9598 18.3 94.1598 18.3C94.3598 18.3 94.7931 18.3 95.4598 18.3C96.1264 18.2667 96.8264 18.2333 97.5598 18.2C98.3264 18.1667 99.0431 18.1333 99.7098 18.1C100.376 18.0667 100.826 18.05 101.06 18.05C101.526 18.0167 101.993 18.0167 102.46 18.05C102.96 18.0833 103.393 18.2333 103.76 18.5C104.026 18.6667 104.193 18.9167 104.26 19.25C104.326 19.55 104.393 19.8333 104.46 20.1C104.46 20.2667 104.46 20.6 104.46 21.1C104.493 21.5667 104.526 22.0833 104.56 22.65C104.593 23.2167 104.61 23.75 104.61 24.25C104.643 24.7167 104.66 25.0333 104.66 25.2C104.826 28.7333 104.976 32.2667 105.11 35.8C105.243 39.3 105.343 42.8333 105.41 46.4C105.41 46.5 105.41 46.6667 105.41 46.9C105.41 47.1333 105.41 47.3833 105.41 47.65C105.41 47.8833 105.393 48.1167 105.36 48.35C105.36 48.5833 105.36 48.75 105.36 48.85C105.26 49.1833 105.06 49.4333 104.76 49.6Z" fill="#22C55E"/>
</svg>
