<svg width="16" height="16" viewBox="0 0 16 16" fill="none" xmlns="http://www.w3.org/2000/svg">
<path d="M4.19468 7.52939C4.13219 7.59137 4.08259 7.6651 4.04875 7.74634C4.0149 7.82758 3.99748 7.91472 3.99748 8.00273C3.99748 8.09074 4.0149 8.17787 4.04875 8.25911C4.08259 8.34035 4.13219 8.41409 4.19468 8.47606L9.52801 13.8094C9.58998 13.8719 9.66372 13.9215 9.74496 13.9553C9.8262 13.9892 9.91333 14.0066 10.0013 14.0066C10.0894 14.0066 10.1765 13.9892 10.2577 13.9553C10.339 13.9215 10.4127 13.8719 10.4747 13.8094C10.5372 13.7474 10.5868 13.6737 10.6206 13.5924C10.6544 13.5112 10.6719 13.4241 10.6719 13.3361C10.6719 13.2481 10.6544 13.1609 10.6206 13.0797C10.5868 12.9984 10.5372 12.9247 10.4747 12.8627L5.60801 8.00273L10.4747 3.14273C10.6002 3.01719 10.6707 2.84693 10.6707 2.66939C10.6707 2.49186 10.6002 2.3216 10.4747 2.19606C10.3491 2.07053 10.1789 2 10.0013 2C9.82381 2 9.65355 2.07053 9.52801 2.19606L4.19468 7.52939Z" fill="#555555"/>
</svg>
