<svg width="16" height="16" viewBox="0 0 16 16" fill="none" xmlns="http://www.w3.org/2000/svg">
<path d="M11.8053 7.52939C11.8678 7.59137 11.9174 7.6651 11.9513 7.74634C11.9851 7.82758 12.0025 7.91472 12.0025 8.00273C12.0025 8.09074 11.9851 8.17787 11.9513 8.25911C11.9174 8.34035 11.8678 8.41409 11.8053 8.47606L6.47199 13.8094C6.41002 13.8719 6.33628 13.9215 6.25504 13.9553C6.1738 13.9892 6.08667 14.0066 5.99866 14.0066C5.91065 14.0066 5.82351 13.9892 5.74227 13.9553C5.66103 13.9215 5.5873 13.8719 5.52532 13.8094C5.46284 13.7474 5.41324 13.6737 5.3794 13.5924C5.34555 13.5112 5.32812 13.4241 5.32812 13.3361C5.32812 13.2481 5.34555 13.1609 5.3794 13.0797C5.41324 12.9984 5.46284 12.9247 5.52532 12.8627L10.392 8.00273L5.52532 3.14273C5.39979 3.01719 5.32926 2.84693 5.32926 2.66939C5.32926 2.49186 5.39979 2.3216 5.52532 2.19606C5.65086 2.07053 5.82112 2 5.99866 2C6.17619 2 6.34645 2.07053 6.47199 2.19606L11.8053 7.52939Z" fill="#555555"/>
</svg>
