<svg width="40" height="40" viewBox="0 0 40 40" fill="none" xmlns="http://www.w3.org/2000/svg">
<path d="M30.1165 3.32023C29.9114 3.11519 29.6332 3 29.3432 3C29.0532 3 28.7751 3.11519 28.57 3.32023L24.9673 6.923L33.076 15.032L36.6787 11.4314C36.7805 11.3298 36.8613 11.2091 36.9165 11.0762C36.9716 10.9433 37 10.8009 37 10.657C37 10.5131 36.9716 10.3707 36.9165 10.2378C36.8613 10.1049 36.7805 9.98425 36.6787 9.88265L30.1165 3.32023ZM31.5295 16.5785L23.4208 8.46954L9.2027 22.6881H9.65549C9.94556 22.6881 10.2237 22.8033 10.4289 23.0085C10.634 23.2136 10.7492 23.4918 10.7492 23.7818V24.8756H11.8429C12.133 24.8756 12.4111 24.9908 12.6163 25.1959C12.8214 25.401 12.9366 25.6792 12.9366 25.9693V27.0631H14.0303C14.3204 27.0631 14.5986 27.1783 14.8037 27.3834C15.0088 27.5885 15.124 27.8667 15.124 28.1568V29.2505H16.2177C16.5078 29.2505 16.786 29.3658 16.9911 29.5709C17.1962 29.776 17.3114 30.0542 17.3114 30.3443V30.7971L31.5295 16.5785ZM15.194 32.9145C15.148 32.7922 15.1243 32.6625 15.124 32.5317V31.438H14.0303C13.7402 31.438 13.462 31.3228 13.2569 31.1177C13.0518 30.9125 12.9366 30.6343 12.9366 30.3443V29.2505H11.8429C11.5528 29.2505 11.2746 29.1353 11.0695 28.9302C10.8644 28.7251 10.7492 28.4469 10.7492 28.1568V27.0631H9.65549C9.36542 27.0631 9.08724 26.9478 8.88213 26.7427C8.67702 26.5376 8.56179 26.2594 8.56179 25.9693V24.8756H7.46809C7.33733 24.8753 7.20768 24.8516 7.08529 24.8056L6.69375 25.195C6.58952 25.2999 6.50766 25.4249 6.45313 25.5625L2.07832 36.4998C1.99877 36.6986 1.97929 36.9163 2.02231 37.126C2.06533 37.3358 2.16896 37.5283 2.32034 37.6796C2.47172 37.831 2.6642 37.9347 2.87392 37.9777C3.08364 38.0207 3.30138 38.0012 3.50014 37.9217L14.4372 33.5467C14.5747 33.4922 14.6997 33.4103 14.8046 33.3061L15.194 32.9145Z" fill="#888888"/>
</svg>
