<svg width="40" height="40" viewBox="0 0 40 40" fill="none" xmlns="http://www.w3.org/2000/svg">
<path d="M19.5 3C20.0802 3 20.6366 3.23047 21.0468 3.6407C21.457 4.05094 21.6875 4.60734 21.6875 5.1875V18.3125H34.8125C35.3927 18.3125 35.9491 18.543 36.3593 18.9532C36.7695 19.3634 37 19.9198 37 20.5C37 21.0802 36.7695 21.6366 36.3593 22.0468C35.9491 22.457 35.3927 22.6875 34.8125 22.6875H21.6875V35.8125C21.6875 36.3927 21.457 36.9491 21.0468 37.3593C20.6366 37.7695 20.0802 38 19.5 38C18.9198 38 18.3634 37.7695 17.9532 37.3593C17.543 36.9491 17.3125 36.3927 17.3125 35.8125V22.6875H4.1875C3.60734 22.6875 3.05094 22.457 2.6407 22.0468C2.23047 21.6366 2 21.0802 2 20.5C2 19.9198 2.23047 19.3634 2.6407 18.9532C3.05094 18.543 3.60734 18.3125 4.1875 18.3125H17.3125V5.1875C17.3125 4.60734 17.543 4.05094 17.9532 3.6407C18.3634 3.23047 18.9198 3 19.5 3Z" fill="#888888"/>
</svg>
