<svg width="175" height="35" viewBox="0 0 175 35" fill="none" xmlns="http://www.w3.org/2000/svg">
<path d="M9.04 31.52C8.56 31.5733 7.93333 31.5867 7.16 31.56C6.38667 31.5067 5.58667 31.4267 4.76 31.32C3.96 31.1867 3.18667 31.0133 2.44 30.8C1.72 30.5867 1.18667 30.3333 0.84 30.04C0.733333 29.96 0.653333 29.8267 0.6 29.64C0.573333 29.4533 0.56 29.2533 0.56 29.04C0.56 28.8267 0.56 28.6267 0.56 28.44C0.586667 28.2267 0.6 28.0533 0.6 27.92C0.653333 25.4133 0.746667 22.9467 0.88 20.52C1.04 18.0667 1.21333 15.6 1.4 13.12C1.53333 11.4667 1.66667 9.82667 1.8 8.2C1.93333 6.57333 2.02667 4.93333 2.08 3.28C2.08 3.06667 2.09333 2.85333 2.12 2.64C2.14667 2.42667 2.24 2.25333 2.4 2.12C2.50667 2.04 2.66667 1.97333 2.88 1.92C3.12 1.86667 3.37333 1.82667 3.64 1.8C3.90667 1.77333 4.16 1.76 4.4 1.76C4.64 1.73333 4.82667 1.72 4.96 1.72C6.10667 1.64 7.25333 1.61333 8.4 1.64C9.57333 1.64 10.7333 1.72 11.88 1.88C12.04 1.90667 12.2533 1.94667 12.52 2C12.7867 2.05333 13.0533 2.12 13.32 2.2C13.6133 2.25333 13.8667 2.33333 14.08 2.44C14.32 2.54666 14.48 2.68 14.56 2.84C14.6933 3.13333 14.72 3.48 14.64 3.88C14.24 5.8 13.9067 7.73333 13.64 9.68C13.3733 11.6 13.1333 13.5467 12.92 15.52C12.76 17.04 12.6133 18.5467 12.48 20.04C12.3733 21.5333 12.2533 23.04 12.12 24.56C12.12 24.7467 12.0933 25.1067 12.04 25.64C12.0133 26.1733 11.9733 26.7467 11.92 27.36C11.8667 27.9467 11.8 28.5067 11.72 29.04C11.6667 29.5733 11.6267 29.9333 11.6 30.12V30.2C11.6 30.2267 11.6133 30.24 11.64 30.24C11.6933 30.5333 11.64 30.76 11.48 30.92C11.3467 31.08 11.1467 31.2 10.88 31.28C10.6133 31.36 10.3067 31.4133 9.96 31.44C9.64 31.4667 9.33333 31.4933 9.04 31.52ZM33.5225 34.76C32.2958 34.8667 31.0692 34.9067 29.8425 34.88C28.6158 34.8533 27.3892 34.8133 26.1625 34.76C25.9758 34.76 25.7892 34.72 25.6025 34.64C25.4158 34.56 25.2692 34.4533 25.1625 34.32C25.0292 34.1333 24.9358 33.9333 24.8825 33.72C24.8558 33.5067 24.8292 33.2933 24.8025 33.08C24.5892 29.9333 24.5492 26.8 24.6825 23.68C24.8425 20.5333 25.0558 17.3867 25.3225 14.24C24.5225 14.24 23.7225 14.2667 22.9225 14.32C22.1492 14.3467 21.3625 14.3867 20.5625 14.44C20.3225 14.44 20.0692 14.44 19.8025 14.44C19.5358 14.44 19.2825 14.4133 19.0425 14.36C18.8292 14.3067 18.6425 14.2267 18.4825 14.12C18.3492 14.0133 18.2692 13.84 18.2425 13.6C17.9492 10.56 17.9492 7.53333 18.2425 4.52C18.2692 4.30667 18.3092 4.10667 18.3625 3.92C18.4158 3.73333 18.5092 3.57333 18.6425 3.44C18.8558 3.22667 19.0958 3.09333 19.3625 3.04C19.6558 2.98667 19.9492 2.96 20.2425 2.96C20.5892 2.96 21.1758 2.93333 22.0025 2.88C22.8292 2.82666 23.7892 2.77333 24.8825 2.72C25.9758 2.64 27.1225 2.56 28.3225 2.48C29.5225 2.37333 30.6692 2.28 31.7625 2.2C32.8558 2.12 33.8158 2.05333 34.6425 2C35.4692 1.94667 36.0558 1.90667 36.4025 1.88C36.6425 1.88 37.0292 1.86666 37.5625 1.84C38.1225 1.81333 38.6958 1.8 39.2825 1.8C39.8958 1.8 40.4692 1.81333 41.0025 1.84C41.5625 1.86666 41.9492 1.90666 42.1625 1.96C42.3758 2.01333 42.5492 2.12 42.6825 2.28C42.8425 2.44 42.9225 2.61333 42.9225 2.8C42.9225 3.04 42.9225 3.42667 42.9225 3.96C42.9492 4.49333 42.9625 5.12 42.9625 5.84C42.9625 6.56 42.9625 7.30667 42.9625 8.08C42.9625 8.85333 42.9625 9.6 42.9625 10.32C42.9625 11.04 42.9625 11.68 42.9625 12.24C42.9625 12.7733 42.9625 13.1467 42.9625 13.36C42.9625 13.5733 42.9092 13.8 42.8025 14.04C42.6958 14.2533 42.5358 14.3867 42.3225 14.44C42.0825 14.52 41.6292 14.5733 40.9625 14.6C40.3225 14.6 39.6292 14.6133 38.8825 14.64C38.1358 14.64 37.4292 14.64 36.7625 14.64C36.0958 14.64 35.6425 14.6533 35.4025 14.68C35.2692 16.9467 35.2025 19.1867 35.2025 21.4C35.2292 23.6133 35.2958 25.8533 35.4025 28.12C35.4025 28.28 35.4292 28.6267 35.4825 29.16C35.5358 29.6667 35.5892 30.2133 35.6425 30.8C35.7225 31.3867 35.7758 31.9333 35.8025 32.44C35.8558 32.9467 35.8825 33.28 35.8825 33.44C35.8825 33.7067 35.8025 33.92 35.6425 34.08C35.5092 34.24 35.3225 34.36 35.0825 34.44C34.8692 34.5467 34.6158 34.6133 34.3225 34.64C34.0558 34.6933 33.7892 34.7333 33.5225 34.76Z" fill="#22C55E"/>
<path d="M79.0413 33.64C77.5212 33.7467 76.0013 33.76 74.4813 33.68C72.9613 33.6267 71.4412 33.5067 69.9212 33.32C69.5479 33.2667 69.1612 33.24 68.7613 33.24C68.3879 33.24 68.0146 33.1733 67.6412 33.04C67.4812 32.9867 67.3212 32.9067 67.1612 32.8C67.0012 32.6667 66.8946 32.52 66.8412 32.36C66.7346 32.12 66.5879 31.7333 66.4012 31.2C66.2412 30.64 66.0412 30 65.8012 29.28C65.5879 28.56 65.3612 27.8 65.1212 27C64.9079 26.2 64.6946 25.44 64.4812 24.72C64.2679 24 64.0812 23.36 63.9212 22.8C63.7612 22.24 63.6412 21.84 63.5612 21.6C62.9746 19.68 62.3746 17.7867 61.7612 15.92C61.1479 14.0267 60.4946 12.1333 59.8012 10.24C59.7479 10.1333 59.6412 9.89333 59.4812 9.52C59.3212 9.14667 59.1479 8.76 58.9612 8.36C58.8012 7.96 58.6412 7.58666 58.4812 7.24C58.3212 6.86666 58.2146 6.61333 58.1612 6.48C58.1346 6.4 58.0812 6.28 58.0012 6.12C57.9212 5.93333 57.8412 5.74667 57.7612 5.56C57.6812 5.34667 57.6146 5.14667 57.5612 4.96C57.5079 4.77333 57.4812 4.64 57.4812 4.56C57.4812 4.34667 57.5479 4.14667 57.6812 3.96C57.8412 3.77333 58.0012 3.61333 58.1612 3.48C58.6679 3.02666 59.2412 2.68 59.8812 2.44C60.5212 2.2 61.1612 1.97333 61.8012 1.76C62.0146 1.68 62.4012 1.57333 62.9612 1.44C63.5212 1.28 64.1212 1.12 64.7612 0.959998C65.4012 0.799998 66.0012 0.666665 66.5612 0.559998C67.1479 0.426665 67.5612 0.359998 67.8012 0.359998C68.3612 0.306666 68.7479 0.586666 68.9613 1.2C69.5746 2.8 70.1346 4.4 70.6412 6C71.1746 7.6 71.7079 9.21333 72.2412 10.84C72.7746 12.6 73.3079 14.3467 73.8413 16.08C74.4013 17.7867 74.9346 19.52 75.4413 21.28C75.4946 21.0933 75.5746 20.7867 75.6813 20.36C75.7879 19.9067 75.9079 19.3867 76.0413 18.8C76.2013 18.2133 76.3479 17.6 76.4812 16.96C76.6413 16.32 76.7879 15.7067 76.9213 15.12C77.0546 14.5333 77.1613 14.0267 77.2412 13.6C77.3479 13.1467 77.4279 12.8267 77.4813 12.64C77.6946 11.7067 77.9079 10.7733 78.1213 9.84C78.3613 8.90667 78.6146 7.97333 78.8812 7.04C78.9079 6.96 78.9346 6.85333 78.9613 6.72C79.0146 6.56 79.0679 6.4 79.1212 6.24C79.1746 6.08 79.2279 5.93333 79.2812 5.8C79.3613 5.66666 79.4279 5.57333 79.4812 5.52C79.6146 5.36 79.8012 5.25333 80.0412 5.2C80.2812 5.12 80.5079 5.06667 80.7213 5.04C82.1879 4.98666 83.6413 5.14667 85.0813 5.52C86.5213 5.86667 87.9612 6.24 89.4013 6.64C89.7213 6.72 90.0013 6.88 90.2413 7.12C90.4813 7.33333 90.5346 7.58666 90.4013 7.88C90.4013 7.90667 90.3879 7.92 90.3612 7.92C90.3612 7.92 90.3612 7.93333 90.3612 7.96C90.2013 8.78667 89.9613 9.58667 89.6412 10.36C89.3213 11.1333 89.0146 11.9067 88.7212 12.68C88.6413 12.8933 88.4946 13.2933 88.2813 13.88C88.0946 14.4667 87.8679 15.1333 87.6012 15.88C87.3346 16.6267 87.0546 17.4267 86.7613 18.28C86.4679 19.1333 86.1879 19.9467 85.9212 20.72C85.6812 21.4667 85.4546 22.1333 85.2413 22.72C85.0546 23.28 84.9213 23.68 84.8412 23.92C84.4412 25.0667 84.0279 26.2133 83.6013 27.36C83.2012 28.5067 82.7746 29.6533 82.3213 30.8C82.1612 31.2267 81.9879 31.6667 81.8013 32.12C81.6413 32.5467 81.3746 32.8933 81.0013 33.16C80.7079 33.3467 80.3879 33.4667 80.0412 33.52C79.7213 33.5733 79.3879 33.6133 79.0413 33.64ZM102.628 31.52C102.148 31.5733 101.521 31.5867 100.748 31.56C99.9742 31.5067 99.1742 31.4267 98.3475 31.32C97.5475 31.1867 96.7742 31.0133 96.0275 30.8C95.3075 30.5867 94.7742 30.3333 94.4275 30.04C94.3208 29.96 94.2408 29.8267 94.1875 29.64C94.1608 29.4533 94.1475 29.2533 94.1475 29.04C94.1475 28.8267 94.1475 28.6267 94.1475 28.44C94.1742 28.2267 94.1875 28.0533 94.1875 27.92C94.2408 25.4133 94.3342 22.9467 94.4675 20.52C94.6275 18.0667 94.8008 15.6 94.9875 13.12C95.1208 11.4667 95.2542 9.82667 95.3875 8.2C95.5208 6.57333 95.6142 4.93333 95.6675 3.28C95.6675 3.06667 95.6808 2.85333 95.7075 2.64C95.7342 2.42667 95.8275 2.25333 95.9875 2.12C96.0942 2.04 96.2542 1.97333 96.4675 1.92C96.7075 1.86667 96.9608 1.82667 97.2275 1.8C97.4942 1.77333 97.7475 1.76 97.9875 1.76C98.2275 1.73333 98.4142 1.72 98.5475 1.72C99.6942 1.64 100.841 1.61333 101.988 1.64C103.161 1.64 104.321 1.72 105.468 1.88C105.628 1.90667 105.841 1.94667 106.108 2C106.374 2.05333 106.641 2.12 106.908 2.2C107.201 2.25333 107.454 2.33333 107.668 2.44C107.908 2.54666 108.068 2.68 108.148 2.84C108.281 3.13333 108.308 3.48 108.228 3.88C107.828 5.8 107.494 7.73333 107.228 9.68C106.961 11.6 106.721 13.5467 106.508 15.52C106.348 17.04 106.201 18.5467 106.068 20.04C105.961 21.5333 105.841 23.04 105.708 24.56C105.708 24.7467 105.681 25.1067 105.628 25.64C105.601 26.1733 105.561 26.7467 105.508 27.36C105.454 27.9467 105.388 28.5067 105.308 29.04C105.254 29.5733 105.214 29.9333 105.188 30.12V30.2C105.188 30.2267 105.201 30.24 105.228 30.24C105.281 30.5333 105.228 30.76 105.068 30.92C104.934 31.08 104.734 31.2 104.468 31.28C104.201 31.36 103.894 31.4133 103.548 31.44C103.228 31.4667 102.921 31.4933 102.628 31.52ZM130.95 33.44C130.603 33.5467 130.07 33.6267 129.35 33.68C128.63 33.76 127.817 33.8 126.91 33.8C126.03 33.8267 125.097 33.8267 124.11 33.8C123.123 33.8 122.177 33.7867 121.27 33.76C120.363 33.7333 119.537 33.7067 118.79 33.68C118.07 33.6533 117.523 33.6267 117.15 33.6C116.803 33.6 116.457 33.6 116.11 33.6C115.79 33.6267 115.457 33.6133 115.11 33.56C114.95 33.5333 114.79 33.4933 114.63 33.44C114.47 33.4133 114.337 33.3333 114.23 33.2C114.07 33.04 113.99 32.84 113.99 32.6C113.937 32.0933 113.87 31.2267 113.79 30C113.71 28.7467 113.617 27.3333 113.51 25.76C113.403 24.16 113.283 22.48 113.15 20.72C113.043 18.96 112.923 17.2933 112.79 15.72C112.683 14.12 112.577 12.7067 112.47 11.48C112.363 10.2533 112.27 9.38666 112.19 8.88C112.137 8.58667 112.097 8.25333 112.07 7.88C112.07 7.50667 112.203 7.25333 112.47 7.12C113.083 6.8 113.723 6.6 114.39 6.52C115.083 6.44 115.763 6.34667 116.43 6.24C119.017 5.94667 121.59 5.73333 124.15 5.6C126.737 5.44 129.323 5.30666 131.91 5.2C132.043 5.2 132.163 5.21333 132.27 5.24C132.377 5.24 132.483 5.26667 132.59 5.32C132.723 5.4 132.817 5.53333 132.87 5.72C132.95 5.90667 132.99 6.12 132.99 6.36C133.017 6.6 133.03 6.84 133.03 7.08C133.03 7.29333 133.03 7.48 133.03 7.64C133.003 8.41333 132.963 9.17333 132.91 9.92C132.883 10.64 132.843 11.3867 132.79 12.16C132.763 12.4533 132.67 12.7467 132.51 13.04C132.377 13.3067 132.15 13.44 131.83 13.44C130.31 13.44 128.79 13.48 127.27 13.56C125.777 13.6133 124.27 13.6667 122.75 13.72C122.75 14.0933 122.75 14.4667 122.75 14.84C122.777 15.2133 122.803 15.5867 122.83 15.96C122.99 15.96 123.297 15.96 123.75 15.96C124.23 15.9333 124.737 15.92 125.27 15.92C125.803 15.8933 126.297 15.88 126.75 15.88C127.23 15.8533 127.55 15.84 127.71 15.84C127.897 15.84 128.097 15.84 128.31 15.84C128.55 15.8133 128.763 15.8133 128.95 15.84C129.163 15.8667 129.323 15.9333 129.43 16.04C129.563 16.12 129.63 16.2533 129.63 16.44C129.63 16.5733 129.63 16.8667 129.63 17.32C129.63 17.7467 129.617 18.2133 129.59 18.72C129.59 19.2267 129.577 19.7067 129.55 20.16C129.55 20.5867 129.55 20.8667 129.55 21C129.55 21.4267 129.51 21.8533 129.43 22.28C129.377 22.7067 129.137 22.92 128.71 22.92C127.697 22.92 126.697 22.92 125.71 22.92C124.723 22.8933 123.737 22.92 122.75 23C122.723 23.1333 122.71 23.3467 122.71 23.64C122.71 23.9333 122.71 24.2533 122.71 24.6C122.737 24.9467 122.763 25.28 122.79 25.6C122.817 25.8933 122.83 26.1067 122.83 26.24C124.27 26.1067 125.71 26.0533 127.15 26.08C128.59 26.08 130.03 26.0667 131.47 26.04C131.87 26.04 132.097 26.24 132.15 26.64C132.23 27.04 132.257 27.44 132.23 27.84C132.23 27.9733 132.217 28.2533 132.19 28.68C132.163 29.08 132.137 29.52 132.11 30C132.083 30.48 132.057 30.9333 132.03 31.36C132.003 31.76 131.99 32.0267 131.99 32.16C131.963 32.4533 131.857 32.72 131.67 32.96C131.483 33.1733 131.243 33.3333 130.95 33.44ZM148.188 33.8C147.201 33.8267 146.201 33.7867 145.188 33.68C144.201 33.5733 143.254 33.3333 142.348 32.96C141.788 32.7467 141.254 32.4533 140.748 32.08C140.268 31.7067 139.881 31.2533 139.588 30.72C139.268 30.08 139.014 29.4133 138.828 28.72C138.668 28 138.534 27.28 138.428 26.56C138.134 24.8267 137.921 23.1067 137.788 21.4C137.681 19.6933 137.601 17.96 137.548 16.2C137.494 14.36 137.494 12.52 137.548 10.68C137.628 8.81333 137.801 6.96 138.068 5.12C138.068 5.01333 138.081 4.86667 138.108 4.68C138.134 4.46667 138.161 4.25333 138.188 4.04C138.214 3.82666 138.241 3.62666 138.268 3.44C138.321 3.25333 138.374 3.12 138.428 3.04C138.508 2.93333 138.641 2.84 138.828 2.76C139.041 2.65333 139.254 2.56 139.468 2.48C139.708 2.4 139.934 2.34667 140.148 2.32C140.388 2.26666 140.574 2.22666 140.708 2.2C142.361 1.96 143.988 1.93333 145.588 2.12C145.828 2.14667 146.121 2.17333 146.468 2.2C146.814 2.2 147.161 2.22667 147.508 2.28C147.854 2.33333 148.161 2.42667 148.428 2.56C148.721 2.66667 148.908 2.82667 148.988 3.04C149.094 3.25333 149.121 3.49333 149.068 3.76C148.881 4.77333 148.734 5.8 148.628 6.84C148.521 7.88 148.401 8.92 148.268 9.96C148.134 11.48 148.001 12.9867 147.868 14.48C147.734 15.9733 147.694 17.48 147.748 19C148.254 17.8 148.708 16.6 149.108 15.4C149.534 14.2 150.014 13 150.548 11.8C150.654 11.56 150.801 11.24 150.988 10.84C151.201 10.44 151.428 10.04 151.668 9.64C151.908 9.24 152.161 8.88 152.428 8.56C152.721 8.21333 152.988 8 153.228 7.92C153.388 7.86667 153.641 7.84 153.988 7.84C154.334 7.81333 154.708 7.8 155.108 7.8C155.508 7.8 155.881 7.81333 156.228 7.84C156.601 7.84 156.868 7.84 157.028 7.84C157.188 7.84 157.414 7.85333 157.708 7.88C158.001 7.90667 158.294 7.94667 158.588 8C158.881 8.05333 159.148 8.13333 159.388 8.24C159.654 8.32 159.841 8.42667 159.948 8.56C160.161 8.8 160.388 9.21333 160.628 9.8C160.894 10.36 161.161 11.0133 161.428 11.76C161.721 12.5067 162.001 13.3067 162.268 14.16C162.561 14.9867 162.828 15.7867 163.068 16.56C163.334 17.3067 163.561 17.9867 163.748 18.6C163.961 19.1867 164.134 19.6267 164.268 19.92C164.321 17.7067 164.334 15.4933 164.308 13.28C164.281 11.0667 164.188 8.85333 164.028 6.64C164.028 6.53333 164.001 6.37333 163.948 6.16C163.921 5.94667 163.894 5.72 163.868 5.48C163.868 5.24 163.854 5.01333 163.828 4.8C163.828 4.56 163.841 4.4 163.868 4.32C163.921 4.08 164.041 3.90667 164.228 3.8C164.441 3.66667 164.681 3.57333 164.948 3.52C165.214 3.44 165.481 3.38667 165.748 3.36C166.041 3.33333 166.308 3.32 166.548 3.32C167.561 3.29333 168.574 3.30667 169.588 3.36C170.601 3.41333 171.614 3.52 172.628 3.68C173.214 3.76 173.614 4.12 173.828 4.76C173.961 5.26667 174.001 5.77333 173.948 6.28C173.894 6.78666 173.868 7.30667 173.868 7.84C173.921 10.3467 173.894 12.8267 173.788 15.28C173.708 17.7333 173.548 20.2 173.308 22.68C173.174 23.8 173.014 24.9067 172.828 26C172.668 27.0933 172.414 28.16 172.068 29.2C171.934 29.6267 171.774 30.04 171.588 30.44C171.401 30.84 171.174 31.2267 170.908 31.6C170.748 31.84 170.561 32.0667 170.348 32.28C170.134 32.4667 169.881 32.6267 169.588 32.76C169.268 32.92 168.921 33.04 168.548 33.12C168.201 33.2 167.841 33.2667 167.468 33.32C166.988 33.4 166.361 33.4533 165.588 33.48C164.814 33.5333 164.028 33.5333 163.228 33.48C162.454 33.4533 161.721 33.36 161.028 33.2C160.334 33.04 159.814 32.7867 159.468 32.44C159.254 32.2533 159.094 32.04 158.988 31.8C158.881 31.5333 158.801 31.2667 158.748 31C158.668 30.7333 158.561 30.28 158.428 29.64C158.321 29 158.188 28.2667 158.028 27.44C157.868 26.6133 157.708 25.7467 157.548 24.84C157.388 23.9067 157.228 23.0267 157.068 22.2C156.934 21.3733 156.814 20.64 156.708 20C156.601 19.3333 156.521 18.8667 156.468 18.6C156.361 19.0533 156.201 19.68 155.988 20.48C155.801 21.2533 155.574 22.1067 155.308 23.04C155.068 23.9733 154.801 24.9467 154.508 25.96C154.214 26.9733 153.894 27.9333 153.548 28.84C153.228 29.7467 152.894 30.56 152.548 31.28C152.228 31.9733 151.908 32.4933 151.588 32.84C151.188 33.2667 150.668 33.52 150.028 33.6C149.388 33.7067 148.774 33.7733 148.188 33.8Z" fill="black"/>
</svg>
