<svg width="50" height="47" viewBox="0 0 50 47" fill="none" xmlns="http://www.w3.org/2000/svg">
<path d="M6.25 10.3333C4.5924 10.3333 3.00269 11.0006 1.83058 12.1883C0.65848 13.3761 0 14.987 0 16.6667L0 35.6667C0 37.3464 0.65848 38.9573 1.83058 40.145C3.00269 41.3327 4.5924 42 6.25 42H43.75C45.4076 42 46.9973 41.3327 48.1694 40.145C49.3415 38.9573 50 37.3464 50 35.6667V16.6667C50 14.987 49.3415 13.3761 48.1694 12.1883C46.9973 11.0006 45.4076 10.3333 43.75 10.3333H40.0875C38.43 10.333 36.8406 9.66548 35.6687 8.47767L33.0813 5.85567C31.9094 4.66785 30.32 4.00036 28.6625 4H21.3375C19.68 4.00036 18.0906 4.66785 16.9188 5.85567L14.3313 8.47767C13.1594 9.66548 11.57 10.333 9.9125 10.3333H6.25ZM7.8125 16.6667C7.3981 16.6667 7.00067 16.4999 6.70765 16.2029C6.41462 15.906 6.25 15.5033 6.25 15.0833C6.25 14.6634 6.41462 14.2607 6.70765 13.9637C7.00067 13.6668 7.3981 13.5 7.8125 13.5C8.2269 13.5 8.62433 13.6668 8.91735 13.9637C9.21038 14.2607 9.375 14.6634 9.375 15.0833C9.375 15.5033 9.21038 15.906 8.91735 16.2029C8.62433 16.4999 8.2269 16.6667 7.8125 16.6667ZM35.9375 24.5833C35.9375 27.5228 34.7852 30.3419 32.734 32.4204C30.6828 34.499 27.9008 35.6667 25 35.6667C22.0992 35.6667 19.3172 34.499 17.266 32.4204C15.2148 30.3419 14.0625 27.5228 14.0625 24.5833C14.0625 21.6439 15.2148 18.8248 17.266 16.7462C19.3172 14.6677 22.0992 13.5 25 13.5C27.9008 13.5 30.6828 14.6677 32.734 16.7462C34.7852 18.8248 35.9375 21.6439 35.9375 24.5833Z" fill="white"/>
<path d="M33.0305 24.534L17.0007 24.534M25.0156 32.068L25.0156 17" stroke="white" stroke-width="2" stroke-linecap="round"/>
</svg>
