<svg width="24" height="24" viewBox="0 0 24 24" fill="none" xmlns="http://www.w3.org/2000/svg">
<path d="M14.6471 7.80156V5.70156C14.6471 5.14461 14.424 4.61046 14.0268 4.21664C13.6297 3.82281 13.091 3.60156 12.5294 3.60156H5.11765C4.55601 3.60156 4.01738 3.82281 3.62024 4.21664C3.22311 4.61046 3 5.14461 3 5.70156V18.3016C3 18.8585 3.22311 19.3927 3.62024 19.7865C4.01738 20.1803 4.55601 20.4016 5.11765 20.4016H12.5294C13.091 20.4016 13.6297 20.1803 14.0268 19.7865C14.424 19.3927 14.6471 18.8585 14.6471 18.3016V16.2016M8.29412 12.0016H21M21 12.0016L17.8235 8.85156M21 12.0016L17.8235 15.1516" stroke="#888888" stroke-width="2" stroke-linecap="round" stroke-linejoin="round"/>
</svg>
